<?xml version="1.0" encoding="UTF-8"?>
<!DOCTYPE svg PUBLIC "-//W3C//DTD SVG 1.1//EN" "http://www.w3.org/Graphics/SVG/1.1/DTD/svg11.dtd">
<!-- Creator: CorelDRAW 2021 (64-Bit) -->
<svg xmlns="http://www.w3.org/2000/svg" xml:space="preserve" width="269px" height="2031px" version="1.1" style="shape-rendering:geometricPrecision; text-rendering:geometricPrecision; image-rendering:optimizeQuality; fill-rule:evenodd; clip-rule:evenodd"
viewBox="0 0 232.531 1754.099"
 xmlns:xlink="http://www.w3.org/1999/xlink"
 xmlns:xodm="http://www.corel.com/coreldraw/odm/2003">
 <defs>
  <style type="text/css">
   <![CDATA[
    .fil0 {fill:#000066}
   ]]>
  </style>
 </defs>
 <g id="__x0023_Layer_x0020_1">
  <metadata id="CorelCorpID_0Corel-Layer"/>
  <path class="fil0" d="M225.158 1721.93c-47.201,-42.72 -119.337,-36.792 -177.379,-24.505 -13.299,6.362 -38.526,11.856 -30.502,32.095 47.055,17.42 100.325,34.477 150.2,17.709 19.95,-6.288 43.007,-8.602 57.681,-25.299zm-179.837 0.072c41.851,-25.298 94.11,-18.866 138.203,-2.964 -42.574,20.384 -93.461,12.144 -138.203,2.964z"/>
  <path class="fil0" d="M155.977 1620.808l16.487 32.381 26.231 -29.399 23.019 29.633 -19.254 -54.516c-5.673,6.323 -22.376,28.54 -27.394,32.238l-16.119 -26.384 -24.265 23.999 -25.681 -20.674 -20.793 20.674c-6.214,-7.663 -12.023,-16.988 -17.805,-24.649l-11.709 23.997 -33.178 -20.239 -8.817 50.742 13.083 -28.767c7.011,7.083 13.01,15.107 19.37,22.839l22.51 -18.317 22.738 18.609 23.491 -16.483 15.265 16.783 22.821 -32.467z"/>
  <path class="fil0" d="M118.326 1581.631c5.276,-15.539 13.227,-33.322 7.372,-49.655 -7.444,-7.012 -19.228,-1.593 -28.407,-2.677 11.349,15.181 7.012,40.696 21.035,52.332z"/>
  <path class="fil0" d="M4.844 1573.898c32.021,9.614 26.671,-37.876 6.794,-48.719 -5.276,15.686 -6.577,32.238 -6.794,48.719z"/>
  <path class="fil0" d="M206.581 1527.927c-1.301,14.24 -2.746,28.551 -2.024,43.007 30.141,11.926 25.443,-23.563 22.624,-41.129 -6.938,-0.795 -13.806,-1.372 -20.6,-1.878z"/>
  <path class="fil0" d="M165.742 1509.351c-9.541,-24.071 -30.503,-42.791 -33.972,-69.101 1.518,-38.092 22.407,-72.789 23.709,-110.736 -28.481,3.831 -57.175,4.771 -85.799,5.855 7.157,25.732 15.469,51.319 28.334,74.956 22.047,34.116 -24.431,62.162 -24.937,96.568 15.179,-15.902 28.335,-33.682 40.985,-51.681 8.744,24.575 28.695,42.791 51.68,54.139zm-131.119 -121.216c-2.602,-24.721 -4.192,-49.586 -4.192,-74.378 57.536,-0.36 114.928,2.746 172.464,-0.795 -1.662,24.792 -2.313,49.658 -1.807,74.595 -4.192,1.59 -12.577,4.842 -16.769,6.432 -0.217,7.228 -0.289,14.528 -0.363,21.9 15.252,-0.36 30.432,-0.721 45.683,-1.589 -2.313,-40.766 -1.301,-81.605 -2.169,-122.372 -74.015,-4.77 -148.176,0.866 -222.265,0.723 1.301,41.563 -3.83,83.123 -0.795,124.613 17.637,-0.579 35.274,0.072 52.838,-1.518 7.663,-16.119 -10.698,-23.708 -22.625,-27.611zm79.728 21.684c-20.674,-12.793 -22.553,-43.007 -29.492,-64.764 20.238,-1.808 40.406,-3.108 60.717,-4.193 -11.349,22.552 -20.891,45.9 -31.225,68.957z"/>
  <path class="fil0" d="M4.41 1248.343c75.029,-2.458 150.417,0.216 225.229,-6.362 -0.071,-4.046 -0.217,-12.215 -0.289,-16.336 -20.239,-0.721 -40.478,-0.143 -60.718,0.507 -1.807,-50.019 -4.335,-99.965 -2.962,-150.055 21.973,0.721 44.091,0.578 65.994,-2.024 -4.049,-3.832 -8.241,-7.375 -12.579,-10.698 -37.222,-5.944 -171.91,-6.86 -214.024,-1.012l-0.651 185.98zm152.224 -24.359c-22.696,0.867 -45.463,1.879 -68.161,2.096l1.59 -145.359 65.127 -4.409c-1.736,49.151 -1.447,98.448 1.444,147.672zm-79.725 -144.058c0.866,48.285 1.807,96.641 1.012,144.998 -20.457,0.433 -40.911,0.867 -61.368,0.939 0.146,-48.14 -0.288,-96.279 -0.651,-144.419 20.311,-0.938 40.624,-1.083 61.007,-1.518z"/>
  <path class="fil0" d="M6.723 1008.802c43.876,5.276 88.183,-2.241 132.13,2.674 31.372,1.518 68.451,4.698 93.677,-17.637 -19.444,-2.24 -38.96,-0.867 -58.33,-0.215 -0.941,-4.699 -2.676,-13.951 -3.615,-18.649 -16.985,0.071 -33.827,2.456 -49.803,8.24 -25.152,9.108 -52.331,4.264 -78.279,2.891 -3.325,-13.588 -6.434,-27.179 -9.181,-40.767 -6.72,-0.65 -20.165,-1.879 -26.888,-2.53 -0.361,21.974 -0.434,44.02 0.289,65.993z"/>
  <path class="fil0" d="M84.281 930.378c21.323,0.866 42.718,1.444 63.969,-0.724 4.264,-25.443 -21.106,-49.297 -46.043,-41.851 -11.999,10.987 -20.817,25.587 -17.926,42.575z"/>
  <path class="fil0" d="M10.192 814.798c59.777,0.723 120.421,-2.457 179.332,9.687 11.42,1.734 17.78,11.13 22.118,20.889 -35.781,2.024 -71.922,-3.254 -107.411,2.53 -31.803,-2.241 -64.113,-4.843 -95.844,-1.011 -2.099,2.962 -6.29,8.89 -8.386,11.852 13.372,1.808 27.033,6.289 40.621,3.254 34.768,5.854 70.043,1.444 104.954,-1.229 28.912,-1.518 57.97,0.145 86.954,-1.951 0.072,-20.602 -14.457,-35.563 -25.878,-51.033 -64.907,-3.974 -129.889,-9.467 -195.014,-7.083 -0.36,3.543 -1.084,10.626 -1.446,14.095z"/>
  <path class="fil0" d="M172.681 675.658c0.506,21.034 0.289,42.14 -0.071,63.318 1.012,10.915 -3.615,27.539 12.936,30.213 1.23,-38.237 -3.034,-76.474 0.218,-114.565 -28.913,-11.421 -22.768,-46.332 -22.842,-71.053 7.085,0.072 21.252,0.144 28.335,0.218 0.651,17.274 4.554,35.778 -4.264,51.896 3.036,5.133 6.216,10.192 9.542,15.325 4.77,-21.901 13.516,-51.68 4.409,-73.438 -16.264,-7.446 -35.928,-4.682 -52.477,0 -2.385,21.249 -2.024,44.453 9.325,63.463 5.058,10.12 15.107,18.793 12.141,31.658 -11.924,-8.312 -27.754,-15.467 -39.609,-3.034 13.662,4.624 27.974,5.999 42.357,5.999z"/>
  <path class="fil0" d="M63.97 648.553c24.359,-15.252 27.611,-52.188 6.071,-71.343 -15.902,-5.494 -35.273,-6.289 -50.596,0.794 -15.759,13.591 -9.253,38.672 -7.083,56.741 10.045,17.926 33.97,18 51.608,13.808z"/>
  <path class="fil0" d="M115.841 518.75c24.36,-15.252 27.611,-52.188 6.071,-71.343 -15.902,-5.494 -35.272,-6.288 -50.596,0.795 -15.758,13.59 -9.253,38.671 -7.083,56.741 10.046,17.925 33.971,17.999 51.608,13.807z"/>
  <path class="fil0" d="M54.213 766.298c7.3,-15.178 6.866,-31.803 2.096,-47.561 -7.589,0.868 -15.107,1.735 -22.624,2.676 -5.422,19.587 -0.074,38.38 20.528,44.885z"/>
  <path class="fil0" d="M72.717 408.468c37.153,-2.892 82.473,-6.723 108.42,25.875 14.529,37.225 17.709,78.859 39.106,113.627 -3.037,-14.023 -6.94,-27.829 -10.989,-41.562 -1.155,-4.192 -3.323,-12.648 -4.407,-16.914 -8.458,-31.225 1.951,-79.004 -36.358,-92.664 -36.575,-21.613 -79.004,-12.071 -118.685,-17.566 -3.832,-14.889 -3.904,-33.754 -20.022,-40.911 -8.748,-7.083 -19.228,0.218 -28.552,1.807 6.144,0.795 18.503,2.459 24.72,3.326 2.891,15.178 5.35,30.502 6.866,45.971 11.855,8.745 23.419,22.045 39.901,19.011z"/>
  <path class="fil0" d="M142.828 283.926c17.132,-5.276 23.709,13.156 32.673,23.13 8.238,-5.639 16.045,-12.794 25.804,-15.83 3.468,4.77 10.554,14.312 14.023,19.082 -1.23,-18.43 -9.831,-35.201 -15.542,-52.403 -12.649,7.806 -17.925,22.189 -25.66,34.188 -5.348,-11.636 -10.48,-23.057 -15.902,-34.549 -13.589,5.782 -13.371,22.768 -22.767,32.67 -7.735,-11.636 -10.409,-29.636 -26.673,-32.309 -1.156,10.769 -2.096,21.611 -3.035,32.526 -10.408,-6.216 -15.975,-15.684 -16.77,-28.623 -16.191,-1.445 -22.261,15.612 -31.369,25.587 -8.964,-9.034 -15.902,-20.311 -26.599,-27.249 -8.241,16.262 -16.265,32.887 -21.686,50.379 13.951,-4.192 20.022,-18.215 27.322,-29.418 8.313,8.89 16.914,17.637 25.733,26.238 4.915,-10.626 10.914,-20.6 17.565,-30.141 5.204,8.168 10.408,16.552 15.467,25.008 4.481,-0.866 13.446,-2.602 17.927,-3.468 0,-4.627 -0.072,-13.734 -0.146,-18.287 8.024,5.854 14.094,13.517 18.215,22.841 2.313,1.084 6.794,3.252 9.036,4.336 0.651,-5.928 1.807,-17.781 2.384,-23.708z"/>
  <path class="fil0" d="M24.006 147.309l-1.662 -51.825 -13.371 -0.578c0.938,18.286 -15.623,43.087 7.226,55.583 -1.155,10.771 -0.072,27.462 -1.445,38.306 64.476,-4.916 129.239,-0.579 193.858,-2.096 3.469,0 10.408,0.071 13.95,0.071 0.216,-2.096 -1.59,-12.066 -1.372,-14.163l-4.627 0c-63.752,-0.506 -127.648,1.446 -191.328,-1.012 -11.349,-7.012 11.42,-18.358 -1.229,-24.286zm16.77 -120.638c39.537,0.073 79.147,0.652 118.686,-0.144 4.046,0.361 12.143,1.156 16.262,1.59l-1.301 9.036c9.902,-2.602 19.733,-5.784 29.418,-9.108 -0.071,-3.614 -0.289,-10.842 -0.361,-14.384 -61.367,-15.902 -127.503,2.964 -188.653,-13.661 -2.386,8.745 -3.687,17.709 -4.77,26.816 5.13,0.578 15.249,1.735 20.311,2.314 0.289,6.288 0.938,18.864 1.229,25.152 -6.216,-1.084 -18.649,-3.18 -24.938,-4.264 0.433,4.337 1.227,13.011 1.59,17.349 20.24,5.492 41.128,3.108 61.657,1.589 49.223,-1.952 98.591,2.096 147.669,-2.602 1.229,-1.735 3.76,-5.276 4.987,-7.012 -16.48,0 -30.357,-1.515 -42.139,-12.07l-0.433 6.795c-45.177,-1.736 -90.28,2.602 -135.384,-0.217 -0.939,-6.795 -2.891,-20.385 -3.83,-27.179zm156.416 74.378c-0.505,13.662 -1.084,27.322 -0.505,41.128 1.878,1.879 5.492,5.638 7.371,7.517 7.446,-12.07 7.735,-26.165 5.494,-39.681 -0.29,-2.314 -1.011,-6.94 -1.374,-9.182 -2.745,0 -8.24,0.146 -10.986,0.218z"/>
 </g>
</svg>
