<?xml version="1.0" encoding="UTF-8"?>
<!DOCTYPE svg PUBLIC "-//W3C//DTD SVG 1.1//EN" "http://www.w3.org/Graphics/SVG/1.1/DTD/svg11.dtd">
<!-- Creator: CorelDRAW 2021 (64-Bit) -->
<svg xmlns="http://www.w3.org/2000/svg" xml:space="preserve" width="1500px" height="2250px" version="1.1" style="shape-rendering:geometricPrecision; text-rendering:geometricPrecision; image-rendering:optimizeQuality; fill-rule:evenodd; clip-rule:evenodd"
viewBox="0 0 1500 2250"
 xmlns:xlink="http://www.w3.org/1999/xlink"
 xmlns:xodm="http://www.corel.com/coreldraw/odm/2003">
 <defs>
  <style type="text/css">
   <![CDATA[
    .fil0 {fill:#000066}
   ]]>
  </style>
 </defs>
 <g id="__x0023_Layer_x0020_1">
  <metadata id="CorelCorpID_0Corel-Layer"/>
  <path class="fil0" d="M-4602.894 -191.163c-8.355,-6.257 -14.149,-15.585 -23.797,-20.172 6.297,7.46 13.501,14.118 20.537,20.899l-4.625 3.106c-8.459,-7.863 -16.62,-16.18 -26.095,-22.848 -13.154,-7.341 -27.278,-13.8 -38.095,-24.527 -7.453,-9.892 -12.446,-21.501 -15.998,-33.32 -2.806,-9.912 -9.555,-19.44 -19.231,-23.527 0.069,-0.478 0.185,-1.456 0.254,-1.935 9.824,3.964 19.1,9.921 25.36,18.63 3.277,4.252 0.747,9.677 1.35,14.498 1.201,8.455 5.39,16.177 10.699,22.769 -4.765,-9.876 -9.567,-20.17 -9.606,-31.38 6.721,6.986 5.235,18.404 12.523,25.064 5.554,5.407 9.117,13.309 16.682,16.285 6.052,2.414 11.951,5.304 18.24,7.138 -13.496,-6.638 -27.952,-14.788 -34.705,-28.795 12.694,13.731 30.396,20.592 45.448,31 -1.315,0.191 -3.946,0.572 -5.24,0.743 1.143,0.265 3.407,0.796 4.549,1.04 7.373,8.119 19.738,13.637 21.75,25.332zm6.127 -6.44c-4.374,-4.767 -8.075,-10.087 -12.26,-14.998 -14.931,-16.282 -38.656,-19.93 -53.692,-36.172 -10.6,-8.266 -11.912,-22.472 -19.903,-32.642 -6.698,-10.215 -19.052,-13.462 -29.619,-17.915 -9.212,-6.059 -18.956,-11.293 -27.68,-18.056 5.715,12.098 13.796,23.331 24.84,31.082 6.935,4.905 13.965,10.623 16.645,19.035 4.226,12.848 8.007,26.316 16.573,37.077 7.641,8.289 16.037,16.13 26.179,21.286 13.92,7.664 25.634,18.341 37.413,28.832 -3.302,3.852 -6.665,7.663 -10.275,11.219 -8.494,-5.196 -18.558,-6.726 -27.397,-11.114 -1.451,1.022 -2.882,2.045 -4.291,3.11l6.173 1.061c-15.293,3.193 -31.136,0.671 -46.444,-1.303l-2.132 -2.675c8.52,0.093 17.04,0.206 25.561,0.256 6.251,0.02 13.353,3.364 18.626,-1.462 -19.745,-3.699 -42.934,2.62 -59.519,-11.602 -7.004,-7.573 -15.524,-13.957 -25.55,-16.819 -20.557,-5.294 -42.565,-0.106 -62.498,-8.412 12.878,14.026 32.099,17.864 49.597,22.909 16.23,7.862 24.655,26.121 41.459,33.261 11.916,6.408 25.892,5.114 38.82,7.577 11.872,1.824 25.082,1.77 34.937,9.61 -1.118,2.673 -2.175,5.367 -3.17,8.083 -14.374,-0.065 -28.01,5.338 -41.606,9.346 -13.036,4.203 -25.96,12.511 -40.19,9.323 -16.248,-3.341 -32.945,-10.625 -49.601,-5.2 -16.685,5.946 -32.676,16.151 -50.901,15.744 4.525,4.414 11.206,4.941 17.175,5.707 18.037,0.488 37.099,-8.738 54.294,0.24 15.811,8.086 34.097,13.349 51.843,9.062 18.668,-4.711 36.519,-12.225 55.605,-15.431 0.46,7.778 0.813,15.679 3.591,23.029 -7.259,5.3 -16.405,6.867 -23.928,11.684 -2.415,1.447 -3.616,4.057 -3.674,6.807 -21.405,6.842 -37.646,23.42 -55.384,36.435 -8.341,5.245 -16.643,10.76 -23.323,18.068 -12.243,11.88 -22.685,27.868 -21.753,45.612 0.06,11.189 6.101,22.27 2.287,33.387 -1.635,5.437 -8.217,6.934 -10.43,11.988 7.994,-2.728 15.09,-8.259 18.941,-15.875 3.948,-7.053 2.642,-15.467 5.221,-22.954 5.208,-14.12 13.756,-27.07 25.014,-37.068 15.874,-12.374 30.744,-26.074 47.969,-36.618 14.984,-11.344 30.216,-25.58 50.201,-25.857 1.69,4.543 4.134,8.763 7.651,12.164 -7.977,9.333 -14.078,20.024 -20.426,30.483 -7.45,11.922 -6.678,27.58 -16.053,38.477 -7.704,10.628 -19.843,16.406 -29.867,24.419 -16.05,13.102 -18.121,35.764 -17.564,55.064 0.667,10.948 -3.117,21.315 -6.875,31.37 11.325,-10.309 16.006,-25.498 20.07,-39.758 3.152,-11.439 10.042,-21.952 19.943,-28.634 10.583,-6.173 22.694,-9.721 32.196,-17.679 8.416,-6.223 14.289,-15.438 17.421,-25.355 2.9,-8.233 3.518,-17.06 6.709,-25.184 2.556,-8.884 8.794,-17.427 17.936,-20.202 9.453,3.563 18.238,8.867 27.907,11.954 20.446,5.709 42.585,4.773 62.717,-1.815 7.927,-2.374 13.235,5.926 18.763,10.125 18.73,15.811 19.2,43.154 35.953,60.398 9.568,10.648 23.51,15.125 36.596,19.695 11.675,4.155 19.55,15.239 22.228,27.026 3.191,13.855 6.541,28.339 15.348,39.873 -0.492,-8.507 -3.928,-16.553 -4.127,-25.119 -0.6,-15.989 2.081,-32.809 -4.992,-47.821 -4.7,-14.792 -21.379,-18.618 -31.415,-28.627 -7.955,-6.543 -11.469,-16.507 -13.925,-26.166 -2.217,-8.801 -8.207,-15.901 -14.648,-21.966 -6.831,-6.488 -11.891,-14.617 -19.101,-20.735 -2.575,-2.263 -5.443,-4.364 -6.943,-7.53 7.09,-5.219 13.218,-11.658 18.189,-18.886 0.653,-3.72 -1.361,-8.935 2.546,-11.32 3.376,-1.602 6.352,-6.063 10.491,-3.967 20.456,8.168 39.347,19.691 56.882,32.903 8.454,8.238 16.288,17.634 27.031,22.985 10.804,5.456 17.752,15.674 25.321,24.692 7.981,9.335 13.042,22.029 9.983,34.343 -5.395,-20.51 -16.643,-39.598 -32.435,-53.851 -7.25,-7.908 -18.003,-10.905 -25.825,-18.114 -18.743,-16.333 -39.639,-30.674 -63.174,-39.132 -4.025,1.842 -11.048,1.979 -10.026,8.18 8.983,2.912 17.426,7.232 25.786,11.593 12.419,6.186 21.611,16.933 32.882,24.792 14.434,9.858 26.707,22.314 39.659,33.924 8.396,9.508 15.586,20.354 19.718,32.431 3.328,9.857 0.256,21.526 6.995,30.241 3.743,6.904 10.882,10.562 17.716,13.736 -2.107,-6.112 -10.631,-7.517 -11.224,-14.587 -2.63,-15.411 7.338,-30.26 3.815,-45.746 -4.354,-18.955 -18.338,-34.454 -33.584,-45.844 -19.028,-15.296 -36.844,-32.429 -58.419,-44.175 -10.884,-5.769 -21.542,-12.724 -33.761,-15.197 1.378,-4.879 3.336,-9.583 5.46,-14.18 21.403,1.117 41.974,-7.236 63.256,-7.892 15.511,-0.753 29.193,7.617 43.659,11.809 8.451,2.237 17.265,0.562 25.723,-0.868 15.949,-5.518 33.337,-7.934 49.978,-4.379 -16.323,-13.405 -39.209,-12.729 -59.078,-10.138 -15.296,-2.974 -26.379,-15.705 -40.938,-20.711 -10.638,-3.829 -22.143,-5.065 -33.343,-4.234 -16.334,3.138 -32.482,7.82 -49.233,7.849 -0.033,-5.397 -2.602,-11.203 -1.013,-16.349 4.934,-1.288 10.008,-2.096 14.884,-3.719 8.768,-2.843 17.628,-6.393 24.382,-12.908 13.495,-12.155 30.935,-20.112 49.271,-20.161 15.29,0.223 32.928,-0.605 44.046,-12.626 10.339,-11.405 25.428,-19.519 41.121,-18.29 -10.091,-5.759 -22.34,-4.38 -33.07,-1.271 -11.264,4.184 -21.406,11.738 -33.653,12.971 -8.423,0.409 -16.621,-1.991 -24.922,-2.914 -20.2,-3.913 -40.494,4.006 -57.019,15.205 -12.125,6.235 -23.71,15.624 -37.922,15.915 -1.63,-2.834 -3.238,-5.668 -4.931,-8.441 5.424,-2.053 10.3,-5.28 14.848,-8.846 15.031,-13.302 18.876,-34.565 32.98,-48.629 7.993,-7.291 17.851,-12.182 27.881,-16.007 8.019,-2.936 14.412,-8.914 20.365,-14.815 8.21,-7.955 9.975,-20.057 17.69,-28.373 4.53,-6.94 10.829,-12.211 16.677,-17.947 -18.873,5.959 -32.12,21.389 -46.703,33.843 -8.499,7.7 -20.323,8.544 -30.785,11.906 -7.596,2.441 -15.197,5.341 -21.494,10.361 -11.948,8.552 -18.13,22.325 -25.976,34.264 -6.085,9.483 -15.653,16.085 -21.531,25.738 -5.949,-0.725 -9.289,-6.52 -14.829,-8.26 6.059,-12.317 15.665,-23.399 17.538,-37.438 1.081,-13.945 2.35,-27.909 5.303,-41.6 6.739,-14.912 23.079,-23.196 27.563,-39.263 3.613,-9.995 1.715,-20.855 3.789,-31.14 0.851,-10.802 6.125,-20.442 12.344,-29.048 -8.739,3.801 -14.539,12.267 -19.724,19.928 -7.246,10.697 -7.245,24.719 -15.629,34.755 -4.157,5.549 -10.43,8.841 -15.532,13.357 -8.723,7.344 -15.58,16.921 -19.41,27.683 -5.454,15.408 -6.485,31.855 -10.507,47.615 -2.128,8.077 -4.358,17.59 -10.89,23.087 -14.042,-1.666 -28.413,-3.606 -42.374,-0.332 -3.943,-16.929 -12.408,-32.188 -23.189,-45.686 -0.71,0.095 -2.129,0.284 -2.838,0.358 -0.745,2.762 0.036,5.147 2.343,7.157 7.941,9.21 12.16,20.996 15.131,32.62 -0.256,2.08 1.724,8.253 -1.87,7.496 -3.553,-8.652 -5.953,-17.746 -8.94,-26.599 0.329,9.755 4.041,18.93 4.934,28.588 -7.709,-6.29 -8.296,-17.028 -13.147,-25.197 -6.425,-13.524 -20.256,-21.667 -26.45,-35.375 -3.449,-8.546 -7.856,-17.146 -7.836,-26.584 -0.309,-9.672 2.111,-19.391 0.427,-29.018 -2.553,-8.66 -6.633,-16.756 -10.379,-24.932 16.865,11.871 21.134,34.013 20.606,53.382 -1.311,-0.101 -2.601,-0.222 -3.891,-0.385 0.167,-4.727 0.23,-9.456 -0.124,-14.17 -2.195,9.972 -0.413,20.164 1.205,30.082 -0.389,-5.215 0.471,-10.349 3.446,-14.727 1.317,9.06 0.977,18.994 6.164,26.98 4.682,6.688 10.439,12.514 16.197,18.258l2.836 -0.234c-5.243,-3.652 -8.461,-9.279 -12.586,-14 -4.299,-5.746 -10.245,-11.45 -9.683,-19.277 4.092,5.618 7.828,11.48 12.384,16.728 0.456,0.194 1.347,0.56 1.782,0.753 0.761,0.74 2.283,2.239 3.044,3 1.059,0.201 3.158,0.604 4.198,0.784 -9.418,-7.834 -16.944,-18.476 -18.572,-30.873 -2.909,-13.166 -0.178,-27.484 -6.912,-39.679 -9.558,-17.753 -28.472,-29.025 -34.627,-48.879 -1.443,5.106 -0.429,10.391 0.294,15.547 1.424,13.645 10.467,24.557 15.869,36.734 1.813,6.274 2.726,12.849 1.516,19.313 -1.815,11.144 -1.467,22.628 1.367,33.584 1.692,6.023 4.156,11.848 7.608,17.102 11.643,17.552 26.303,33.851 33.14,54.068 -3.333,1.54 -6.565,3.289 -9.511,5.459zm-31.209 43.903c10.798,-22.422 32.294,-37.681 55.157,-46.086 32.204,-8.866 70.236,-1.612 93.807,23.056 8.58,8.178 13.35,19.284 20.372,28.669 4.209,9.453 6.072,19.812 6.998,30.054 0.431,13.09 0.896,26.785 -4.185,39.156 -4.527,11.441 -11.311,21.832 -18.857,31.482 -17.67,19.038 -42.759,31.895 -69.11,31.463 -38.522,1.385 -76.231,-23.95 -89.482,-60.149 -4.803,-13.315 -7.364,-27.559 -6.114,-41.732 1.272,-12.629 6.199,-24.482 11.414,-35.913zm160.727 -27.019c-2.426,3.738 -6.689,0.015 -5.019,-3.338 6.773,-6.452 14.247,-12.292 19.848,-19.864 12.343,-14.858 19.227,-34.29 35.627,-45.553 11.726,-7.512 27.011,-3.788 38.777,-11.237 5.328,-4.221 9.421,-9.709 14.358,-14.352 -2.229,14.159 -16.599,21.635 -28.261,27.419 -9.307,5.794 -20.708,7.747 -28.996,15.201 -2.663,-4.974 3.627,-7.953 6.624,-10.851 6.48,-4.769 15.155,-2.154 21.485,-6.591 -5.936,-0.1 -11.9,0.259 -17.431,2.54 -4.718,2.292 -8.153,6.809 -13.133,8.43 -0.266,2.79 -0.429,5.6 -0.654,8.389 -3.899,3.407 -6.004,8.192 -8.273,12.704 -3.449,7.184 -8.533,13.513 -11.238,21.061 4.705,-6.021 8.399,-12.765 13.084,-18.807 4.323,-5.527 6.275,-12.877 12.124,-17.133 -0.954,4.342 -3.771,7.805 -5.967,11.526 -5.214,8.265 -7.492,18.278 -14.36,25.499 -1.522,1.689 -3.448,2.435 -5.821,2.216 -7.713,6.606 -14.103,15.585 -24.289,18.533 5.373,-7.72 14.007,-12.982 18.247,-21.676 -5.838,5.006 -11.121,10.624 -16.732,15.884zm40.061 20.782c13.524,-4.905 23.14,-16.674 36.382,-22.249 10.971,-5.626 23.82,-5.206 35.579,-2.612 14.71,3.07 30.187,0.233 43.06,-7.451 -5.165,7.724 -14.076,11.939 -22.913,13.781 -6.43,0.956 -13.013,0.848 -19.267,2.724l-6.926 0.658 3.315 -4.915c-10.106,-4.634 -22.11,-4.418 -31.668,1.456 9.269,-1.398 18.654,-2.086 28.02,-1.379l0.334 3.171c-13.454,-0.428 -26.692,3.293 -39.091,8.233l6.296 2.813c3.483,-1.87 6.885,-3.888 10.268,-6.011 -0.436,1.474 -0.319,3.622 -2.2,4.055 -6.174,2.106 -11.112,6.833 -17.446,8.436 0.38,-2.015 2.995,-4.335 1.228,-6.254 -6.571,5.35 -14.042,9.418 -21.002,14.202 5.505,-1.886 10.621,-5.923 16.619,-5.718 -5.429,8.741 -17.307,8.855 -25.984,12.74 -5.364,0.742 -12.082,4.549 -16.797,0.298 -0.452,-3.652 -1.781,-7.066 -3.175,-10.418 7.813,-1.563 16.108,-1.683 23.365,-5.378 -0.232,1.81 -0.443,3.619 -0.655,5.429 -6.731,1.682 -14.461,1.705 -19.921,6.529 9.459,-0.021 17.997,-4.387 26.361,-8.235l-5.528 0.489c0.431,-1.098 1.294,-3.295 1.746,-4.394zm-205.881 -4.019l0.308 3.462c-9.518,-1.897 -18.066,-7.74 -28.008,-7.455 8.105,3.129 16.527,5.886 23.989,10.402l1.342 4.102c-9.3,-0.998 -17.358,-6.148 -26.373,-8.204 -15.917,-4.857 -32.875,-3.353 -48.928,-7.295 -17.415,-6.627 -26.653,-24.855 -43.023,-33.198 -4.911,-2.023 -10.618,-2.182 -14.758,-5.78 11.272,0.004 23.284,0.768 32.607,7.871 10.369,5.283 16.161,16.319 26.721,21.293 1.103,0.035 3.311,0.127 4.393,0.183l-0.714 1.991c14.944,5.886 31.075,3.975 46.776,4.62 8.815,1.45 17.766,3.652 25.668,8.008zm-88.816 49.952c17.56,1.9 31.544,-12.541 49.001,-12.352 -7.177,5.489 -16.451,7.241 -23.487,13.045l5.697 -0.717c13.132,-8.285 28.55,-11.456 43.492,-14.821 0.256,1.171 0.766,3.511 1.042,4.681 -7.225,1.238 -14.352,2.894 -21.437,4.613 6.551,-0.726 13.15,-1.826 19.789,-1.301 -0.098,1.103 -0.273,3.351 -0.351,4.475 -18.646,1.44 -36.874,5.97 -53.713,14.206 -12.261,7.025 -26.743,3.938 -39.203,-0.727 -7.884,-4.043 -15.697,-8.834 -24.705,-9.85 -7.983,-1.335 -15.692,1.834 -23.516,2.689 10.947,-8.585 25.409,-8.768 38.661,-8.822 0.212,1.336 0.593,4.009 0.784,5.344l-7.461 -1.432c11.668,4.696 23.569,9.084 35.823,12.038 -1.533,-0.645 -4.579,-1.894 -6.092,-2.539 -7.359,-2.827 -14.869,-5.322 -22.533,-7.112 1.064,-1.673 2.149,-3.347 3.234,-5.02 8.137,2.254 16.563,3.178 24.975,3.602zm277.448 5.76c16.123,0.255 32.121,-2.658 47.637,-6.87 14.724,-4.263 31.339,-1.793 44.337,6.276 12.299,5.871 22.745,17.782 37.696,15.354 -0.03,0.688 -0.111,2.083 -0.161,2.769 -17.278,3.522 -34.457,-3.498 -48.731,-12.771 -1.613,2.145 -3.686,2.972 -6.201,2.459 -11.959,-1.533 -23.769,1.373 -35.367,3.907 -9.633,2.081 -19.559,1.22 -29.231,-0.053 -3.72,-0.717 -8.231,0.14 -10.982,-3.021 8.243,-4.142 16.92,1.453 25.566,-0.036 9.668,-1.686 19.554,-2.366 29.106,-4.719 7.196,-0.551 14.395,0.211 21.587,-0.131 -4.296,-1.287 -8.908,-0.681 -13.161,-2.05 -7.154,-1.032 -14.46,0.038 -21.06,2.846 -13.377,1.594 -30.13,6.393 -41.035,-3.96zm-198.521 30.143c0.734,2.802 2.158,5.362 3.31,8.045 -1.002,3.67 -5.964,2.304 -9.168,2.95 -0.016,1.538 -2.286,1.767 -3.092,0.703 -23.309,7.407 -41.47,24.445 -60.99,38.401 -7.127,6.364 -16.338,9.639 -23.464,16.003 -14.081,13.815 -26.798,30.168 -30.79,49.971 -2.969,-11.853 2.835,-23.756 9.751,-33.061 9.26,-11.712 20.647,-21.979 33.928,-28.907 3.945,-2.115 7.462,-4.964 10.629,-8.11 12.014,-12.009 26.695,-20.794 41.083,-29.625 4.463,-2.675 9.283,-4.635 14.245,-6.149l-0.49 0c2.99,-0.737 5.952,-1.525 8.962,-2.176l-0.103 0.178 0.31 -0.025 0.629 -1.955 3.739 1.602 -0.246 0.285 1.017 0.549c0.152,-1.999 0.325,-4.017 0.538,-6.014 -8.747,4.468 -18.446,6.818 -27.639,10.259 2.203,-4.242 7.417,-4.61 11.216,-6.748 5.569,-2.009 10.322,-6.905 16.625,-6.176zm-24.006 111.9c14.287,-10.478 18.277,-28.615 25.666,-43.747 4.864,-11.686 14.025,-20.649 21.903,-30.296 1.061,1.744 2.1,3.487 3.16,5.251 -4.388,4.088 -8.241,8.683 -11.619,13.639 -10.461,12.759 -11.384,30.477 -21.185,43.64 -5.471,7.261 -12.002,14.28 -20.611,17.728 -4.91,2.581 -11.135,3.895 -13.915,9.213 10.301,-2.26 19.399,-7.994 27.384,-14.66 16.894,-17.069 18.724,-43.464 35.845,-60.405 2.886,-2.4 5.125,-7.85 9.677,-5.414 -8.042,9.436 -16.716,19.322 -19.049,31.896 -3.604,17.246 -12.81,32.75 -25.534,44.833 -1.046,-1.306 -2.049,-2.59 -3.053,-3.896l2.777 -1.984c-4.429,2.463 -8.737,5.219 -12.532,8.585 1.657,-0.791 4.969,-2.33 6.626,-3.121 1.029,0.951 2.037,1.881 3.066,2.853 -8.858,3.425 -17.254,8.044 -25.951,11.887 -10.76,5.379 -13.156,17.931 -18.844,27.399 0.402,-8.308 3.113,-16.377 7.705,-23.296 3.655,-5.41 5.704,-12.176 11.441,-15.913 3.447,-6.955 11.499,-9.306 17.043,-14.192zm186.902 -57.32c11.697,10.364 23.706,20.774 32.428,33.911 6.816,12.363 9.968,27.656 22.04,36.421 8.957,8.057 22.064,11.064 28.801,21.508 -9.927,-3.986 -18.727,-11.249 -29.881,-12.272 -15.617,-8.624 -20.248,-27 -26.735,-42.233 -6.325,-16.376 -19.577,-28.907 -33.931,-38.432 2.132,-3.68 5.235,-0.493 7.278,1.097zm-16.396 3.032c2.717,-0.651 5.454,-1.24 8.212,-1.807 9.956,9.612 22.589,17.009 29.362,29.495 7.527,12.164 9.289,27.001 17.507,38.84 3.596,5.423 8.576,10.115 14.947,11.991 17.401,2.856 34.196,16.913 34.679,35.525 -5.404,-10.469 -12.444,-21.625 -24.205,-25.573 -13.348,-3.74 -28.131,-7.644 -37.084,-19.118 -10.159,-11.698 -13.872,-27.061 -19.645,-41.056 4.981,4.608 9.854,9.465 15.598,13.146 -2.198,-2.405 -4.332,-4.892 -6.088,-7.602 -3.051,-2.396 -6.144,-4.853 -9.815,-6.173 -4.377,-6.121 -8.163,-12.901 -14.205,-17.585 -3.651,-2.799 -7.067,-5.991 -9.263,-10.083zm-13.092 -185.002c4.19,-6.445 8.173,-13.038 11.329,-20.059 4.771,-10.98 6.576,-22.936 7.232,-34.804 1.148,-11.111 3.072,-22.69 10.316,-31.616 6.203,-10.501 18.533,-14.88 25.558,-24.642 5.356,-6.347 7.878,-14.356 10.502,-22.092 0.841,10.45 -2.482,20.614 -7.311,29.738 -5.419,9.575 -15.789,15.397 -20.175,25.673 -6.061,13.963 -5.33,29.495 -8.004,44.211 -4.889,13.582 -12.822,25.811 -18.829,38.899 -0.456,-1.755 -0.87,-3.49 -1.285,-5.225 -3.126,0 -6.25,-0.042 -9.333,-0.083z"/>
  <path class="fil0" d="M960.381 651.4c2.939,-24.415 0.907,-49.156 0.508,-73.68 -4.644,24.198 -4.063,49.374 -0.508,73.68zm-201.993 -267.148c-14.982,6.313 -19.191,22.855 -22.963,37.076 -4.971,-5.442 -10.231,-10.629 -16.579,-14.511 2.285,12.008 11.79,19.989 19.336,28.732 -3.628,-1.451 -7.292,-2.866 -11.029,-4.281 -3.664,-2.648 -7.219,-5.441 -10.847,-8.235 0.327,-2.975 0.98,-8.924 1.306,-11.899 -8.779,-11.5 -18.102,-22.601 -27.389,-33.738 -2.794,-4.788 -5.406,-9.65 -8.198,-14.439 -5.334,1.525 -10.74,3.048 -16.18,4.571 4.281,14.549 13.604,26.41 24.088,37.003 6.965,12.299 19.154,19.59 30.11,27.789l3.809 2.794c-3.7,4.933 -9.577,9.541 -7.945,16.542 0.109,5.115 0.399,10.231 0.907,15.309 16.645,0.429 24.374,19.926 27.814,24.561 -0.036,0.196 -22.374,-15.211 -23.17,-15.442 -4.825,6.277 5.374,8.638 7.322,23.276 -1.535,-4.935 -14.763,-18.257 -16.718,-24.159 -4.608,14.511 19.948,40.881 23.431,54.232 -2.648,-3.12 -20.711,-22.635 -23.359,-25.792 -15.998,0.907 -32.577,1.633 -47.27,8.925 7.003,4.534 13.823,9.251 21.332,12.842 -0.545,1.451 -1.669,4.353 -2.213,5.804 -1.488,-0.834 -4.426,-2.466 -5.877,-3.301 -1.741,-1.016 -5.26,-3.011 -7.037,-4.027 -2.576,-1.741 -7.8,-5.187 -10.412,-6.892 -4.137,5.187 -8.235,10.484 -12.044,15.962 4.643,3.482 9.214,7.074 13.858,10.52 3.882,3.81 7.981,7.365 11.863,11.101l-6.894 -0.036c-21.439,-14.584 -40.159,-32.868 -60.365,-49.084 -10.376,-8.126 -21.186,-17.087 -34.645,-19.3 -15.455,-2.031 -31.344,-1.921 -46.653,1.489 -2.14,-0.508 -6.385,-1.525 -8.525,-1.995 2.322,-22.529 2.757,-45.166 5.006,-67.658 5.877,-21.767 9.759,-44.004 15.491,-65.772 -10.883,17.268 -19.01,36.169 -23.689,56.085 -17.631,-14.511 -31.925,-32.83 -42.953,-52.747 -6.494,-15.563 -16.325,-31.924 -11.173,-49.374 27.461,-15.273 58.225,-22.202 88.589,-29.167 6.458,-2.394 13.35,-0.072 18.61,3.737 -22.745,2.321 -44.476,12.733 -61.127,28.26 -1.778,0.218 -5.406,0.653 -7.219,0.871 3.192,-4.68 6.312,-9.36 9.359,-14.04 -15.599,3.447 -29.856,10.847 -44.113,17.849 -0.108,11.5 2.54,22.674 8.272,32.685 4.86,-5.876 9.685,-11.717 14.691,-17.412 -0.326,0.978 -0.943,2.902 -1.233,3.882 -3.193,6.783 -6.819,13.422 -9.178,20.569 1.523,5.587 3.664,10.919 6.385,16.034 4.136,-7.111 8.271,-14.184 13.459,-20.532 -3.193,7.581 -7.183,14.8 -11.573,21.838 4.281,4.427 8.017,9.759 13.677,12.443 6.457,-9.213 10.339,-19.807 15.164,-29.856 0.217,-1.742 0.653,-5.224 0.87,-6.966 11.718,-7.291 16.579,-20.895 25.975,-30.4 12.444,-13.676 29.603,-21.077 44.876,-30.836 -20.571,4.789 -37.511,17.922 -56.376,26.737 -9.033,3.918 -14.62,12.153 -19.59,20.243 -1.995,-4.353 -4.135,-8.634 -6.348,-12.915 3.41,-3.011 6.711,-6.095 10.012,-9.106 19.01,-15.019 42.336,-23.036 64.937,-30.945 -2.43,0.291 -7.256,0.871 -9.686,1.161 -3.048,-6.348 4.608,-11.209 10.739,-7.473 0.216,-1.161 0.688,-3.518 0.906,-4.715 -39.651,-3.701 -82.277,-3.991 -117.939,16.542 -2.103,-19.3 -1.558,-38.89 0.219,-58.153 4.643,-15.708 10.375,-31.162 17.412,-45.964 3.049,4.064 5.297,9.215 10.666,10.557 21.984,8.453 43.606,17.849 65.01,27.68 -23.98,-14.801 -49.592,-26.809 -74.116,-40.776 5.297,-3.011 9.687,-9.178 16.253,-8.924 6.457,2.068 11.863,6.276 17.667,9.541 17.559,10.593 36.75,18.719 52.313,32.323 12.225,9.686 22.346,21.766 34.898,31.053 -5.114,6.566 -10.376,13.134 -14.148,20.607 -0.944,14.111 3.337,31.234 17.558,37.256 15.164,5.514 28.26,-6.167 41.574,-11.246 4.934,-11.319 7.98,-24.451 3.048,-36.314 -6.095,-12.117 -21.803,-12.805 -33.63,-12.297 -2.285,-4.499 -4.172,-9.106 -6.276,-13.678 0.544,5.298 1.125,10.594 1.56,15.926l-7.908 -3.519c-19.083,-29.384 -42.771,-57.753 -76.038,-71.43 -1.124,-0.617 -3.374,-1.85 -4.498,-2.467l-0.109 -3.12c10.013,-13.059 24.125,-21.947 37.584,-31.052 20.459,-15.165 46.616,-19.228 71.393,-20.751 6.385,-2.395 8.199,4.787 8.344,9.359 1.778,28.551 -0.689,57.282 2.975,85.724 -1.197,9.758 -2.902,19.481 -2.322,29.384 1.524,1.343 4.608,4.063 6.131,5.442 2.576,-0.326 7.726,-0.943 10.302,-1.233 -3.264,-1.705 -6.746,-2.793 -10.483,-3.302 0.326,-10.883 -0.073,-21.802 0.834,-32.649 6.276,-19.881 19.627,-36.097 31.996,-52.422 4.609,-17.921 21.586,-32.431 39.797,-35.188 0.109,11.717 1.56,23.472 0.109,35.152 8.38,9.541 14.438,21.005 23.871,29.566 7.364,8.199 23.109,0.545 27.027,13.423 -6.967,-3.192 -14.04,-4.498 -21.259,-3.954 -2.866,2.467 -8.634,7.473 -11.5,9.976 18.973,6.639 30.11,24.524 44.44,37.475l-1.959 0.798c-15.2,-14.04 -26.483,-36.06 -49.265,-38.091 2.104,8.307 -2.794,14.62 -7.8,20.315 5.986,25.032 25.757,44.04 47.814,55.794 16.506,7.691 23.689,25.105 34.971,38.237 1.053,2.83 3.157,8.453 4.208,11.283 -9.505,-3.628 -18.864,-7.8 -28.549,-11.029 -17.232,-2.648 -33.195,-9.795 -46.218,-21.513 -4.426,6.567 -8.78,13.242 -12.516,20.28 -7.147,2.358 -14.548,3.301 -22.093,4.027l0.798 4.861c22.166,-3.846 40.522,9.287 58.588,19.735 5.406,3.3 10.92,6.456 16.471,9.396 12.806,7.254 26.481,13.204 37.836,22.709 13.024,10.702 29.458,17.413 39.507,31.525l5.042 2.14c-2.067,-16.687 -8.307,-32.722 -19.191,-45.637l7.183 0.872c4.209,5.55 8.054,11.355 11.9,17.123 0.217,-5.987 0.399,-11.937 0.616,-17.921 2.939,4.389 5.877,8.778 8.852,13.131 5.151,-19.843 -5.333,-38.744 -14.91,-55.322 -1.56,2.176 -4.68,6.566 -6.276,8.779l-1.778 -2.975c2.286,-3.809 5.623,-6.022 10.049,-6.675 -1.197,-5.115 -2.576,-10.194 -3.845,-15.309 -1.887,-12.77 -6.53,-24.996 -16.325,-33.919 0.254,5.041 0.762,15.054 1.015,20.061l-1.124 -3.193c-0.472,-17.595 -11.536,-31.199 -23.145,-43.278l-0.254 -2.033c11.174,7.473 18.792,18.321 26.265,29.167 12.443,10.231 16.325,26.266 20.46,41.031 6.458,22.962 23.037,42.951 22.456,67.729 1.524,14.983 -4.425,30.764 -17.522,38.963 -5.26,1.85 -11.681,9.758 -16.978,3.772 -6.457,-3.301 -2.285,-10.556 1.343,-14.112 -15.564,-16.869 -37.512,-29.311 -60.765,-30.436 -6.494,7.545 -12.443,15.635 -15.599,25.249 0.109,-4.39 0.109,-8.743 0,-13.06 -4.535,-1.597 -9.07,-3.229 -13.641,-4.898zm-39.107 22.71c10.992,3.084 8.199,-14.039 10.049,-20.461 -1.85,-2.757 -3.664,-5.513 -5.478,-8.307 -2.612,-3.374 -5.986,-12.878 -11.464,-7.111 -1.596,1.016 -4.825,2.976 -6.457,3.955 -0.544,-13.132 -10.52,-20.788 -22.239,-24.052 6.713,21.149 17.523,42.517 35.589,55.976zm-11.753 48.794c1.631,-7.619 -1.815,-14.657 -8.418,-18.466 0.944,6.639 1.379,15.237 8.418,18.466zm-9.615 1.776c-7.726,-12.007 -16.034,-23.688 -24.16,-35.478 -2.83,-6.095 -5.55,-12.226 -8.561,-18.284 -6.349,-12.371 -12.697,-24.778 -18.284,-37.547 -26.374,1.451 -52.821,-2.758 -79.121,-0.472 1.233,2.177 3.699,6.53 4.934,8.67 -1.705,-0.544 -5.044,-1.633 -6.749,-2.177l-1.269 5.007c-3.411,10.375 -4.099,21.295 -4.607,32.142 0.87,1.378 2.576,4.099 3.41,5.478 -1.379,16.143 -3.483,32.867 1.887,48.539 4.172,0.617 8.306,1.305 12.406,2.068 14.366,2.103 28.949,9.215 43.497,4.499 20.315,-5.442 41.356,-6.53 61.998,-9.905l2.684 -0.398c2.976,-0.545 8.961,-1.598 11.935,-2.142zm-96.569 24.706c-8.018,-0.944 -16.072,-2.504 -23.763,-5.188 -5.006,-1.633 -10.158,-3.228 -15.272,-4.753 14.729,4.681 26.373,14.947 39.796,22.094 0.943,2.104 2.829,6.348 3.773,8.488 5.659,-3.7 10.992,-7.763 16.143,-12.006 -7.219,-5.624 -14.765,-5.987 -21.44,0.978 0.218,-2.431 0.58,-7.219 0.763,-9.613zm96.569 -15.635l-3.156 -1.669c-27.317,-2.902 -53.799,5.151 -80.536,9.178 16.108,12.189 31.925,24.958 49.737,34.572 0.616,-1.451 1.849,-4.39 2.467,-5.877 14.329,3.265 28.95,1.85 43.279,-0.29l0.145 -3.374c-4.535,-10.628 -8.344,-21.548 -11.936,-32.54zm15.781 -224.123c9.215,15.381 15.237,32.831 28.369,45.565l-0.217 0.652c4.172,2.54 8.307,5.043 12.443,7.583l0.109 3.664c7.11,1.85 14.257,3.773 21.367,5.478 5.369,-15.709 -11.536,-22.855 -21.875,-29.966 -0.762,2.721 -2.213,8.163 -2.939,10.847l-2.213 -0.036c-0.943,-4.208 -1.959,-8.417 -3.011,-12.588 -7.037,-14.657 -16.216,-28.187 -25.829,-41.211 -6.675,-4.645 -6.276,5.767 -6.204,10.012zm-5.224 -18.791c7.872,-1.67 15.019,-4.535 13.459,-14.33 -2.068,0.145 -6.24,0.435 -8.344,0.544 0.436,-0.871 1.234,-2.684 1.633,-3.591 1.705,-0.508 5.079,-1.597 6.747,-2.104 -0.108,-2.105 -0.326,-6.313 -0.435,-8.417 1.887,0.363 5.696,1.161 7.618,1.524 1.524,-17.268 -12.334,-38.562 -31.67,-34.682 -14.62,0.871 -16.542,18.828 -25.793,27.426 -9.25,6.929 -4.897,29.53 -21.186,23.472 3.773,4.751 3.083,15.019 10.775,15.491 15.055,2.502 30.545,1.85 45.201,6.421 4.897,-11.391 -8.018,-11.683 -16.07,-13.024 -8.49,-1.161 -17.232,-1.451 -25.503,-4.208 14.727,-0.29 29.492,1.196 43.568,5.478zm-24.85 118.772c4.027,2.612 13.677,-0.654 12.299,-6.094 -3.991,-3.628 -14.512,0 -12.299,6.094zm-20.351 -23.218l6.711 1.669c-0.108,-2.358 -0.326,-7.038 -0.436,-9.396 2.468,0.109 7.401,0.29 9.869,0.399 -1.199,0.29 -3.628,0.907 -4.862,1.197 -2.105,2.25 -1.959,4.753 0.435,7.619 8.09,0.834 16.216,1.088 24.27,1.197 -2.43,-8.634 7.291,-8.924 12.37,-12.189 11.718,-5.224 22.638,-19.264 15.527,-32.215 -4.571,-7.727 -5.659,-21.694 -15.889,-23.073 -5.007,12.625 0.979,26.519 -1.452,39.616 -6.347,11.318 -20.388,4.897 -30.291,9.468 -5.116,0.073 -10.266,-0.036 -15.418,-0.326 2.612,-4.789 5.333,-9.505 8.09,-14.185 2.612,-3.991 5.224,-8.017 7.836,-12.008 0.217,2.648 0.725,7.981 0.979,10.629l2.104 -0.362 0.654 6.385c8.27,0.399 14.111,-4.898 19.589,-10.231 0.036,-10.049 2.648,-21.693 -4.68,-30.001 -4.789,-7.618 -14.873,-8.78 -22.999,-6.603l5.042 6.313 -1.523 3.555c-1.959,-3.301 -3.991,-6.567 -6.058,-9.832 -6.784,-2.466 -13.568,-4.787 -20.715,-6.275 6.421,15.418 17.486,38.091 0.798,50.969 -0.363,2.213 -1.052,6.639 -1.415,8.852 -1.487,0.508 -4.534,1.524 -6.022,1.996l1.814 2.902c0.617,1.959 1.886,5.84 2.503,7.799 -1.415,0.871 -4.244,2.685 -5.659,3.556 -15.164,-0.545 -30.365,-0.907 -45.456,-2.794 -3.519,3.011 -7.111,6.095 -10.303,9.578 -9.795,10.847 -13.313,25.538 -17.993,38.998 24.414,-0.798 48.793,1.379 73.171,0.653 -2.031,-10.702 -5.949,-22.783 -0.072,-32.904 7.727,3.556 12.806,-4.861 18.864,-8.053 0.145,-0.726 0.471,-2.177 0.617,-2.903zm-104.805 -70.016c7.544,0.11 15.018,0.654 22.491,1.271 -6.783,-1.561 -13.676,-3.339 -20.75,-3.012l0.145 -2.792c-29.167,-3.629 -58.879,-17.233 -88.299,-6.459 -6.421,0.4 -6.095,7.8 -8.272,12.189 17.34,-2.538 34.609,-7.399 52.276,-5.984 13.967,1.197 27.97,3.3 42.009,1.849l0.4 2.938zm53.617 -27.098l1.524 -0.073c-0.653,-27.68 -11.464,-54.271 -26.447,-77.235 -3.628,-6.059 -9.976,-9.54 -15.418,-13.785l0.617 7.183c-2.14,-0.363 -6.385,-1.124 -8.525,-1.488 0.545,6.276 2.14,12.334 5.877,17.486 10.411,16.325 20.679,32.759 32.468,48.104 4.753,5.805 7.873,12.661 9.904,19.808zm37.874 -9.614c7.328,-1.197 7.546,-9.831 12.153,-14.257 11.319,-11.79 18.065,-27.063 29.348,-38.817 21.948,-10.303 40.704,17.195 41.284,36.64l8.09 0.871c-3.773,-18.792 -15.962,-34.464 -27.824,-49.011 -14.439,-0.327 -29.132,4.643 -38.382,16.216 -11.645,14.076 -18.502,31.344 -24.669,48.358zm-24.886 -34.137c-5.478,-12.589 -8.199,-25.938 -9.106,-39.616 -9.795,16.254 1.487,33.703 3.591,50.318 3.193,13.604 1.234,28.296 6.857,41.283 2.793,-17.159 1.886,-34.971 -1.342,-51.985zm84.852 67.983c-8.199,-3.481 -3.736,10.049 1.161,3.084l-1.161 -3.084zm-169.161 95.7c6.638,-8.016 12.226,-16.795 18.647,-24.922 8.016,-7.799 17.595,-13.785 25.647,-21.512 -27.606,5.187 -44.838,30.4 -63.811,48.902 -7.401,13.494 -15.455,27.026 -21.259,41.247 3.664,4.136 7.546,8.017 11.355,11.935 8.017,-19.371 15.128,-39.868 29.421,-55.65zm4.607 131.325c0.399,6.168 11.682,7.329 12.153,0.654 -1.161,-4.971 -11.028,-6.24 -12.153,-0.654zm84.599 28.659c-0.979,-2.394 -2.975,-7.183 -3.99,-9.577 -4.825,3.338 -9.687,6.711 -14.729,9.867 1.596,2.54 4.788,7.619 6.421,10.158 4.244,-3.374 8.344,-6.856 12.298,-10.448zm24.379 9.759c-4.535,-0.073 -9.07,0 -13.677,0.217 2.576,-7.001 -1.487,-12.08 -8.707,-12.733 -3.083,4.752 -6.602,9.251 -10.194,13.713 3.701,2.104 7.365,4.244 10.956,6.385 4.789,4.752 10.158,8.924 15.6,12.879 2.249,-6.748 4.244,-13.605 6.022,-20.461zm-101.433 -281.369c8.454,2.759 16.398,6.677 24.633,9.942 -7.873,-6.241 -16.869,-10.666 -25.865,-15.056 0.326,1.306 0.942,3.846 1.232,5.114zm-7.762 -3.481c1.85,-1.161 3.664,-2.359 5.369,-3.52 -22.42,-9.83 -45.601,-17.703 -69.073,-24.704 -2.394,3.7 -4.644,7.509 -6.783,11.427 23.906,2.177 49.663,4.136 70.487,16.797zm-79.992 46.073c35.878,-11.937 74.514,-16.471 112.134,-12.263 -19.772,-6.421 -40.958,-7.4 -61.346,-11.463 -17.051,-4.789 -33.557,3.3 -49.954,7.146 -0.254,5.514 -0.544,11.064 -0.834,16.58zm2.031 -39.072c28.224,-9.795 57.935,-3.156 85.978,3.373 -21.839,-12.769 -48.104,-19.843 -73.499,-18.972 -9.032,-1.306 -11.028,8.997 -12.479,15.599zm245.054 -93.958c0.617,-5.878 1.125,-11.755 1.451,-17.631 -11.863,3.7 -24.632,10.81 -27.788,23.906 8.851,-2.068 17.523,-4.353 26.337,-6.275zm-111.553 68.818c-16.687,-21.186 -27.281,-46.581 -44.984,-66.969 -5.006,2.758 -9.94,5.587 -15.019,8.417 8.671,10.231 19.59,18.32 27.208,29.421 -1.995,-0.689 -5.914,-2.104 -7.908,-2.794l0.581 -3.337c-7.8,-5.841 -14.911,-12.589 -22.493,-18.791 -1.922,1.595 -5.768,4.788 -7.69,6.42 8.815,3.991 16.832,9.469 25.321,14.003 9.359,7.292 17.159,19.518 29.566,20.824 4.462,5.042 7.4,12.552 15.418,12.806zm107.272 248.935c-6.602,0.4 -5.115,11.138 0.871,11.282 6.82,-0.107 4.643,-10.701 -0.871,-11.282zm273.932 196.915c-2.104,-19.554 1.632,-39.035 0.689,-58.589 -0.254,-6.057 2.648,-11.645 3.918,-17.485 5.115,-5.406 10.375,-10.738 16.107,-15.49 -6.892,26.3 -7.618,53.617 -6.493,80.644 1.56,2.394 4.679,7.147 6.239,9.541 -6.747,0.29 -13.64,0.689 -20.46,1.379zm-141.977 25.284c0.617,5.242 1.262,10.486 2.091,15.71 0.531,-3.697 -0.282,-9.094 -2.091,-15.71zm-3.427 -10.803c1.363,3.866 2.52,7.487 3.427,10.803 -0.545,-4.625 -1.07,-9.249 -1.682,-13.857 -0.585,1.017 -1.167,2.035 -1.745,3.054zm172.431 -117.4c7.618,-0.581 15.163,-1.161 22.745,-1.742 -0.363,-0.87 -1.087,-2.539 -1.451,-3.41l2.141 -0.072c4.57,3.7 9.685,7.654 9.105,14.257 -10.702,3.119 -23.181,7.11 -29.021,17.449 -7.038,24.052 -4.354,49.41 -5.515,74.115 3.047,1.161 6.023,2.358 8.961,3.628 -10.992,8.743 -20.606,20.46 -23.255,34.608 -1.378,19.953 -0.543,40.014 1.089,59.967 -2.467,2.467 -4.534,5.26 -6.167,8.416 1.814,-1.596 5.404,-4.825 7.219,-6.421 2.212,6.675 8.235,14.294 3.483,21.259 -3.374,-0.109 -6.457,-1.234 -9.323,-3.41 -3.955,-0.835 -7.836,-2.032 -11.609,-3.628 0.87,-1.886 2.576,-5.659 3.446,-7.546 -0.181,-23.762 -0.29,-47.487 -1.124,-71.213l-4.862 -2.103c0.363,29.203 -0.181,58.406 -0.181,87.61 3.047,-0.218 9.178,-0.617 12.226,-0.835 -0.327,2.213 -0.98,6.675 -1.306,8.888 1.16,-1.451 3.446,-4.353 4.607,-5.804 7.654,1.306 15.235,0.036 22.709,-1.161 6.965,6.349 14.875,11.754 20.787,19.118 -0.581,6.892 -5.658,12.66 -11.174,16.507 -0.761,0.617 -2.284,1.885 -3.046,2.538 -3.519,4.027 -6.749,8.38 -10.484,12.335 -3.847,-0.363 -6.893,-2.213 -9.179,-5.66 -8.09,-1.306 -16.216,-2.538 -24.306,-4.063 1.923,-1.015 5.805,-3.047 7.727,-4.063 11.283,-3.917 22.818,-6.855 34.102,-10.664 1.523,-0.472 4.533,-1.415 6.057,-1.852 -0.109,-2.175 -0.327,-6.492 -0.399,-8.67 -1.669,-0.434 -4.933,-1.305 -6.566,-1.741 -16.034,-5.659 -32.649,1.487 -48.757,3.121 -0.145,-5.225 -0.29,-10.448 -0.399,-15.636 -20.46,12.841 -37.584,30.254 -58.297,42.661 -1.96,11.428 -2.104,23.037 -0.29,34.501 15.054,-0.254 30.073,-0.146 45.056,-0.653 -0.327,-1.851 -1.052,-5.587 -1.415,-7.474 14.656,-1.886 29.856,-3.228 42.227,-12.044 9.904,0.436 25.901,-3.628 27.425,10.521l1.525 4.317c-7.51,-1.234 -8.671,4.571 -9.433,10.121 3.7,-1.922 7.365,-3.918 10.92,-5.949 -1.887,8.162 -6.965,15.345 -15.274,17.74 -4.243,1.414 0.437,6.203 0.653,8.924 0.691,-1.596 2.069,-4.789 2.758,-6.421 14.765,3.41 -4.897,21.984 -13.64,15.672 -5.95,47.232 -0.544,95.155 -4.209,142.534 2.25,13.857 -2.067,27.679 -1.161,41.61 -0.326,24.197 2.54,48.431 0.11,72.591 -1.561,122.98 0.072,246.106 -3.664,368.942l-5.406 0c-1.378,-19.046 2.503,-38.6 -2.612,-57.209 -0.217,19.407 -3.809,38.598 -3.954,58.043 -5.659,-2.467 -3.773,-9.36 -4.571,-14.221 -3.192,-109.993 -1.052,-220.094 -1.741,-330.161 -1.125,-74.767 0.761,-149.644 -3.556,-224.34 -0.217,-15.128 0.726,-30.327 -0.87,-45.382 -1.56,-1.052 -4.68,-3.193 -6.24,-4.245 -21.513,2.866 -42.807,-6.493 -64.211,-2.176 -10.049,1.523 -20.425,1.087 -30.437,3.265 -10.847,41.537 -7.074,85.324 -8.053,127.914 -1.016,35.479 10.992,69.616 10.302,105.059 4.317,34.899 4.354,70.124 7.292,105.169 4.39,57.39 5.515,115.144 4.208,172.68 4.317,30.618 1.777,61.744 5.406,92.471 10.774,172.609 9.831,345.688 9.903,518.586 -0.544,34.282 2.938,68.456 2.468,102.738 -25.685,11.646 -53.909,17.74 -82.024,18.901 -10.013,-11.646 -4.39,-28.006 -6.095,-41.864 -2.322,-23.436 2.214,-48.902 -9.759,-70.342 -9.395,-17.704 -19.372,-35.117 -28.586,-52.929 -20.896,-34.029 -25.902,-74.623 -33.557,-113.077 -6.421,-4.825 -12.915,-9.65 -18.61,-15.382 -14.656,-15.454 -32.794,-27.715 -44.513,-45.855 -20.895,-28.804 -32.903,-63.159 -38.599,-98.022 -10.121,-49.953 -14.728,-101.504 -34.463,-148.99 -7.619,-21.84 -19.264,-41.865 -31.344,-61.49 -14.439,-24.052 -12.406,-52.966 -13.314,-79.848 0.182,-15.672 -2.322,-31.235 -2.104,-46.869 0.4,-69.001 -0.906,-138 1.343,-206.964 -0.11,-44.693 7.582,-88.88 9.251,-133.5 6.166,1.487 12.153,3.519 18.464,4.171 29.566,2.72 58.697,9.179 88.373,11.102 7.037,0.289 18.029,5.296 22.71,1.849 -5.696,-2.938 -11.973,-4.099 -18.83,-3.446 2.322,-1.597 4.644,-3.157 6.929,-4.716 12.625,3.447 25.649,4.788 38.6,5.985l-0.181 2.068c-7.22,-0.29 -14.657,-1.814 -21.767,0.654 6.675,6.13 17.667,4.281 26.011,6.675 35.19,3.337 71.975,12.841 106.474,0.688 0.944,-5.986 0.581,-12.007 0.508,-17.993 0.726,-11.282 2.83,-22.455 2.939,-33.739 -2.395,-1.704 -7.183,-5.114 -9.578,-6.819l-0.108 7.401c-0.436,-1.669 -1.27,-5.043 -1.705,-6.712 -7.8,5.986 -17.268,8.344 -26.845,9.541 0.072,2.503 0.18,7.545 0.254,10.049 0.653,4.571 1.45,9.105 2.176,13.64 0.761,5.08 1.379,10.23 1.85,15.381 4.136,1.705 8.271,3.447 12.407,5.007 -5.368,1.016 -10.23,3.337 -14.511,6.965 -2.032,-7.836 -3.264,-15.852 -3.773,-23.87 -5.696,0.436 -11.354,0.87 -17.086,1.451l8.199 6.312c-2.866,2.322 -5.732,4.644 -8.634,7.001 -1.052,-5.55 -2.177,-11.1 -3.483,-16.578l-0.908 -2.467c-0.797,-1.814 -2.322,-5.405 -3.119,-7.22 -15.491,-9.831 -34.899,-5.078 -52.167,-8.416 -0.98,-0.362 -3.011,-1.125 -3.991,-1.487 -7.219,1.052 -14.437,2.576 -21.803,2.395 7.183,-0.836 12.59,-5.805 18.284,-9.686 8.779,0 17.486,0.362 26.193,0.507 -20.933,-2.14 -40.812,-10.048 -61.853,-11.427 -0.835,-1.995 -2.54,-6.022 -3.375,-8.017 8.527,1.414 16.833,3.083 25.177,4.933 13.894,3.81 28.297,4.68 42.59,4.68 -0.181,-7.255 4.861,-16.724 -1.959,-22.129 -10.158,-7.727 -23,-10.339 -35.189,-13.169 -0.508,7.364 -1.051,14.765 -1.524,22.166 1.67,1.705 4.934,5.151 6.603,6.856 -4.643,-1.052 -9.288,-2.14 -13.967,-3.229 -0.109,-0.834 -0.327,-2.466 -0.399,-3.301 4.535,-8.271 6.747,-17.449 8.236,-26.664l-4.281 -0.435c-13.568,-1.742 -27.281,-0.871 -40.958,-1.125 -1.632,10.412 5.623,17.014 15.345,18.393 5.08,2.576 12.263,3.156 15.019,8.779 -22.491,2.939 -46.652,-10.121 -70.306,-7.364 11.9,3.374 23.944,6.929 36.423,6.457 0.436,1.633 1.343,4.861 1.778,6.494 -9.831,-1.85 -20.134,-2.975 -29.494,1.705 6.385,10.448 18.502,13.713 28.841,18.647l3.555 3.7c-14.039,-4.063 -29.022,-14.91 -43.715,-7.292 -7.872,3.12 -9.867,12.297 -14.075,18.828 25.684,5.043 51.224,11.21 77.308,13.422 -2.106,1.741 -4.245,3.484 -6.423,5.298 -12.696,-3.629 -25.973,-3.956 -38.888,-6.567 -14.911,-2.794 -29.603,-8.235 -45.021,-6.784l-17.385 -12.96c-3.554,-9.395 -4.245,-19.373 -1.741,-29.094 3.337,-0.399 6.638,-0.762 9.903,-1.125 -2.611,-5.37 -5.441,-10.773 -10.409,-14.366 7.182,-9.903 5.73,-21.475 4.133,-32.831 2.105,-0.871 23.589,9.84 25.693,8.969 -2.721,-9.721 -20.614,-32.259 -20.759,-42.307 -3.882,-12.952 -7.981,-26.447 -16.941,-36.931 -7.111,-8.416 -13.784,-17.195 -19.408,-26.701 -11.319,-18.973 -31.018,-33.738 -34.718,-56.628 -0.363,-8.018 -7.726,-10.992 -14.256,-13.313 1.595,-1.018 4.787,-3.085 6.384,-4.101 -4.099,-17.339 8.243,-22.302 -2.35,-36.958 3.954,2.685 11.899,8.017 15.889,10.702l4.172 -2.612c-7.727,-6.494 -13.967,-14.838 -23.218,-19.372 -4.317,-5.406 -7.545,-11.573 -11.063,-17.522 -10.848,-18.031 -8.817,-39.941 -14.475,-59.568 10.157,11.428 21.076,23.291 35.624,28.986 -6.821,-13.422 -22.384,-18.937 -31.271,-30.945 -1.815,-1.088 -5.478,-3.228 -7.293,-4.317 -7.109,-23.217 -1.487,-48.285 4.101,-71.284 1.921,1.921 3.809,3.845 5.658,5.768 8.272,-7.836 19.01,-2.177 26.882,3.011 -0.29,1.306 -0.834,3.88 -1.125,5.187 5.66,-3.518 11.174,-7.037 16.978,-10.194 -5.84,6.639 -12.479,12.552 -18.356,19.191l-0.689 0.835c4.897,11.136 9.359,25.03 20.787,30.871 1.487,-2.975 4.426,-8.924 5.877,-11.863 1.088,1.85 3.265,5.551 4.353,7.437 0.073,0.436 0.181,1.343 0.254,1.778 4.571,2.83 9.106,5.695 13.532,8.634 5.804,-2.503 11.68,-5.006 17.448,-7.437 -8.597,11.174 -20.786,20.388 -24.922,34.428 -3.337,8.561 0.472,17.485 1.996,26.011 2.031,-0.835 6.058,-2.576 8.09,-3.447 2.865,-12.479 3.88,-25.249 6.13,-37.837 6.712,1.124 13.387,2.213 20.062,3.192 1.161,-2.031 3.483,-6.167 4.644,-8.199 17.512,-21.063 10.404,-54.564 34.796,-91.882 0.01,14.162 19.081,52.164 -26.191,96.091 -1.379,1.378 -2.073,5.498 -3.453,6.839 -2.72,8.779 -14.403,15.87 -23.436,19.607 -2.322,17.123 -7.583,33.846 -7.836,51.223 -0.254,10.884 3.119,21.404 4.498,32.142 8.997,-20.496 26.446,-35.479 42.625,-50.244 9.578,-9.286 17.668,-24.559 7.147,-36.205 1.089,-0.979 3.265,-2.902 4.39,-3.881 0.58,-0.69 1.777,-2.104 2.394,-2.83 1.415,-8.162 7.909,-13.096 14.33,-17.413 10.847,3.773 21.404,8.416 31.017,14.765 0.109,4.534 0.218,9.069 0.218,13.604 -12.516,-3.737 -23.29,-11.754 -35.988,-15.055 10.92,11.717 25.068,20.061 34.428,33.412 13.785,-10.702 21.585,-26.592 27.643,-42.518l0.979 2.539c4.535,11.428 17.631,15.527 25.213,24.524 14.257,13.423 19.445,32.685 26.229,50.39 -1.016,5.332 -1.923,10.666 -2.938,16.034 7.908,1.269 15.744,2.866 23.435,4.861 1.959,9.033 10.992,11.681 18.357,14.91 5.694,2.286 11.462,4.499 17.123,6.784 -1.888,4.97 -3.883,9.904 -6.022,14.801 -1.742,-0.471 -5.224,-1.451 -6.966,-1.959 -18.211,-6.82 -32.65,-22.165 -52.748,-23.979 -0.036,5.732 -0.036,11.464 -0.036,17.195 -1.632,-5.223 -3.265,-10.484 -5.26,-15.563 -10.448,-2.14 -21.114,-2.902 -31.598,-4.97 2.432,5.623 4.608,11.355 6.095,17.269 0.943,3.41 1.741,6.856 2.504,10.339l0.724 3.373c1.161,4.644 2.468,9.251 3.883,13.822 0.289,0.871 0.871,2.612 1.161,3.483 2.03,12.805 14.728,12.515 24.813,13.822 -9.65,-0.907 -19.372,-0.726 -29.094,-0.436 0.906,9.541 -2.722,22.818 6.13,29.348 21.259,1.887 40.849,-9.287 61.999,-8.705 10.339,-2.25 24.813,0.362 30.871,-10.268 -10.483,-2.213 -21.113,-3.628 -31.851,-3.954l2.358 -0.581c1.887,-0.47 5.696,-1.415 7.581,-1.885 -0.688,-8.272 -0.326,-16.797 5.008,-23.544 1.885,-2.322 5.622,-6.893 7.509,-9.179 2.104,2.032 4.136,4.1 6.059,6.275 3.265,-1.559 6.457,-3.082 9.613,-4.533 0.254,9.033 0.616,18.065 1.269,27.098 0.689,0 2.032,-0.072 2.722,-0.072 1.849,-18.792 -5.116,-37.148 -2.214,-55.904 -2.321,4.426 -6.166,6.567 -11.572,6.422 -0.254,-2.649 -0.725,-7.945 -0.943,-10.63 -4.97,-2.213 -9.977,-4.389 -14.839,-6.893 -3.3,-1.995 -6.565,-4.063 -9.794,-6.239 -0.181,-1.56 -0.616,-4.644 -0.834,-6.204 0.29,-1.016 0.907,-3.083 1.233,-4.136 -8.126,-2.031 -16.433,-3.119 -24.777,-4.171 3.591,-0.182 7.183,-0.29 10.738,-0.4 4.571,-0.544 8.961,-0.216 13.169,1.053 1.813,3.192 2.721,6.675 2.684,10.448 17.414,-6.385 36.314,-2.504 53.981,-7.437 4.208,-0.254 5.55,-4.57 7.654,-7.365 -18.211,5.769 -37.293,11.609 -56.556,7.764 -0.472,-1.161 -1.415,-3.446 -1.923,-4.571 5.188,-3.12 11.064,-4.317 16.725,-5.914 -0.219,-7.4 -0.399,-14.801 -0.183,-22.201 3.919,6.711 3.737,14.583 3.883,22.093l6.166 0.87c0.399,-7.546 1.342,-15.055 3.992,-22.128 -1.235,-1.851 -3.737,-5.478 -4.97,-7.292 0.833,-0.726 2.502,-2.177 3.372,-2.866l6.567 -3.338c-1.379,11.645 -3.737,23.145 -5.442,34.754 7.473,-10.556 9.831,-23.109 10.702,-35.733 2.068,11.173 3.593,22.455 4.535,33.811 4.876,-12.725 11.135,-24.773 17.845,-36.598 -15.064,-42.712 -55.335,-115.277 -61.813,-135.197l-2.612 -0.11c1.959,-4.498 3.7,-9.069 5.296,-13.676 -1.053,15.129 75.711,109.289 81.117,122.457 -11.863,16.035 -3.991,37.149 -8.598,55.433 0.036,14.366 -15.055,22.419 -15.527,36.603 -2.213,27.063 2.286,54.017 5.659,80.791 -5.006,-1.451 -13.676,-0.436 -14.221,-7.91 -4.171,-15.78 -6.203,-32.177 -6.892,-48.466 -4.027,6.675 -2.285,14.439 -1.451,21.731 1.015,11.717 7.908,22.926 4.426,34.863 -6.966,0.362 -21.258,-10.122 -23.073,0.869 21.804,1.342 43.569,-0.435 65.336,-1.161 -0.072,1.923 -0.254,5.842 -0.326,7.764 -6.676,-1.778 -13.496,-2.466 -20.461,-2.104l0.109 4.353c16.47,0.508 32.904,0.689 49.265,2.249l-0.98 -8.706c-6.458,0.545 -12.914,1.015 -19.481,1.523 -2.467,-2.103 -4.933,-4.171 -7.473,-6.24 16.361,0.907 33.484,-0.108 49.011,-5.332 18.029,-11.899 33.81,-26.918 50.063,-41.066 -0.581,-7.582 -2.431,-16.107 3.12,-22.383 -0.762,-21.912 2.104,-44.078 -3.664,-65.482l-2.25 -1.487c-2.249,-6.674 -6.675,-12.261 -11.899,-16.977 1.995,-1.342 3.991,-2.648 5.986,-3.918 8.489,4.027 18.066,2.902 27.1,3.555l0.906 -1.669c7.401,-1.015 14.802,-1.886 22.165,-2.575 -11.318,-33.92 -6.275,-71.504 3.593,-105.132zm-106.148 301.538c1.087,-12.081 2.031,-24.198 2.502,-36.314 -2.322,0.254 -6.965,0.761 -9.287,1.015 -0.218,11.754 -1.777,23.508 -0.871,35.262l7.656 0.037zm2.031 32.541c-16.796,-2.141 -33.883,-1.052 -50.534,1.995 -0.182,-1.669 -0.472,-4.934 -0.653,-6.603l-2.213 5.478 -7.982 1.633c-0.181,-1.959 -0.544,-5.805 -0.725,-7.727 -0.399,1.777 -1.234,5.333 -1.633,7.074 -4.498,-0.218 -17.413,5.55 -15.055,-3.193 4.317,-2.031 3.592,-6.167 2.032,-9.758l-1.814 7.981c-5.586,-1.306 -11.246,-2.394 -16.978,-3.338 5.659,2.467 11.572,4.571 16.216,8.707 -8.997,1.524 -19.082,0.871 -27.208,6.022 14.801,1.778 30.038,2.975 44.766,0.036 20.461,-3.845 41.647,-2.974 61.781,-8.307zm-169.525 188.497c-8.017,54.561 -2.503,109.848 -0.29,164.628 6.385,130.381 7.038,260.906 11.537,391.36 -0.69,65.337 1.632,130.672 0.725,196.043 1.487,30.437 0.327,61.963 11.935,90.766 6.639,14.403 16.942,26.701 24.56,40.595 6.857,10.956 11.608,23.363 20.389,33.086 -0.871,-14.874 -3.012,-29.676 -2.322,-44.585 -0.582,-77.417 -21.345,-156.683 -17.572,-233.954 1.887,-78.724 6.036,-154.928 8.648,-233.65 3.59,-36.205 19.88,-73.293 22.274,-109.57 1.269,24.269 1.051,48.575 2.792,72.844 -3.156,71.358 -2.902,142.897 -4.171,214.364 -2.794,27.607 1.886,55.286 -0.762,82.93 -0.181,65.372 -0.761,130.744 0,196.116 3.482,64.647 8.307,129.22 8.235,193.976 22.383,-0.254 44.875,-4.898 65.59,-13.314 2.83,-28.442 -1.379,-57.682 -1.633,-86.413 -1.307,-83.475 -0.362,-166.949 -2.067,-250.423 -2.757,-76.763 -1.451,-153.672 -7.292,-230.29 -1.742,-55.795 -6.095,-111.48 -5.26,-167.312 -0.762,-90.076 -7.836,-179.899 -12.299,-269.795 -0.943,-16.978 -7.799,-33.194 -6.929,-50.317 -5.453,12.94 -9.383,9.359 -23.987,8.268 19.224,77.456 10.692,149.444 -8.336,223.581 7.806,-33.292 -7.356,-98.46 -10.075,-132.271 -17.846,-123.881 9.903,-69.942 -73.69,-86.663zm-23.246 274.254c-0.725,-40.186 -2.412,-267.509 -29.501,-283.14 -15.454,-4.353 -30.983,-4.512 -46.945,-3.786 3.882,79.012 7.366,144.94 4.392,224.061 -4.898,42.916 -10.194,86.34 -24.959,127.189 -6.821,25.068 -22.056,46.544 -35.334,68.527 21.875,47.343 49.627,94.902 50.534,148.484 2.99,-62.185 5.025,-124.949 4.487,-188.08 30.719,142.32 1.863,95.984 4.22,229.4 4.099,20.823 14.801,39.543 25.14,57.79 13.603,22.456 26.338,45.638 43.17,65.881 11.028,14.292 24.741,27.642 28.514,45.999 1.633,-85.796 -22.326,-171.52 -22.11,-257.352 -2.974,-78.686 2.926,-156.287 -1.608,-234.973zm273.597 -440.986c-0.87,-0.724 -2.539,-2.103 -3.41,-2.828 -0.725,12.297 -1.124,24.595 -2.14,36.893 2.998,110.369 -1.219,298.862 2.322,403.116 11.584,-136.046 3.029,-298.95 3.228,-437.181zm-335.203 -126.571c1.995,-1.85 6.022,-5.514 8.017,-7.328l-7.546 -1.161c1.705,-0.217 5.079,-0.616 6.747,-0.798 -2.647,-8.235 -5.259,-16.506 -7.835,-24.741 -5.151,4.389 -10.122,8.997 -14.983,13.821 -6.711,6.277 -13.277,12.915 -21.222,17.704 9.468,-10.992 21.839,-19.517 28.804,-32.614l0.291 0.218c1.269,-2.177 3.772,-6.566 5.006,-8.779 0.871,-1.995 2.612,-5.986 3.483,-8.018 1.85,2.721 3.7,5.442 5.477,8.163 0.073,-6.131 0.109,-12.262 0.073,-18.356 2.104,0.689 6.312,2.14 8.38,2.865 -3.301,-4.063 -6.856,-7.908 -10.593,-11.645 1.814,-1.922 5.442,-5.731 7.256,-7.654 3.591,1.015 8.306,-0.108 8.997,-4.245 2.792,-8.524 4.715,-17.267 7.037,-25.865 10.411,4.825 6.493,20.207 8.018,29.928 4.353,0.617 8.67,1.235 12.95,1.851 6.856,3.301 12.951,7.908 17.268,14.22 -11.172,-4.426 -22.382,-11.427 -34.718,-10.773 -3.228,7.544 6.241,7.508 10.304,10.048 9.505,3.119 19.263,5.405 28.804,8.38 6.167,-18.828 2.285,-42.698 -14.075,-55.323 -7.293,-5.949 -14.693,-12.624 -23.798,-15.599 -6.132,1.088 -4.063,8.053 -5.261,12.407l-4.318 -1.052c-1.667,10.448 0.254,21.839 -4.751,31.524 -4.245,2.686 -8.924,3.773 -14.076,3.23l-2.902 -0.582c-1.995,6.675 0.182,16.218 -7.038,20.098 -6.784,-13.676 -12.334,-28.042 -21.222,-40.63 -0.907,1.814 -2.685,5.478 -3.592,7.328 0.073,-6.094 0.073,-12.189 0,-18.248 -8.344,5.624 -12.044,15.818 -18.139,23.654 -11.101,9.867 -22.927,19.082 -32.468,30.617 5.66,7.546 -14.991,4.563 -14.046,13.197 1.631,5.95 3.807,11.791 4.896,17.921 11.138,-5.696 29.465,-10.041 42.344,-14.394 -7.764,10.013 -29.321,9.569 -35.052,20.816 -2.575,3.735 -2.32,9.213 2.575,11.027 0.508,13.894 4.027,27.643 2.177,41.574 1.162,0.399 3.484,1.16 4.643,1.56 3.665,-10.412 25.729,-8.044 33.275,-16.208 -1.814,8.634 -4.716,17.087 -5.695,25.902 1.088,11.5 6.602,22.021 8.017,33.449l-2.068 0.036c-7.509,-5.623 -5.042,-17.595 -8.416,-25.612 -0.98,1.887 -2.939,5.695 -3.918,7.582 2.285,11.609 7.618,22.347 11.717,33.375 -1.596,-6.239 -0.399,-10.085 3.664,-11.536 -0.072,6.131 -0.507,12.298 -1.414,18.429 14.075,-20.461 30.292,-40.159 53.037,-51.513 -21.004,15.997 -41.211,34.717 -50.824,60.075 11.318,-5.333 25.43,-2.576 34.899,-12.008 12.588,-11.573 17.522,-30.256 34.499,-37.221 5.732,-3.048 11.392,-6.53 17.957,-7.073 -3.989,-8.781 -6.855,-18.212 -5.622,-27.971 -14.765,-3.955 -30.364,-4.245 -44.803,-9.759 -4.97,-0.652 -10.049,-1.197 -15.127,-1.922 5.731,-1.886 11.79,-3.156 17.667,-4.099 4.425,-2.395 7.327,-6.023 8.634,-10.92 -2.866,0.653 -8.562,1.995 -11.391,2.648zm158.677 -37.076c6.711,0.218 19.408,1.814 18.356,-8.489 -6.639,1.379 -13.748,3.011 -18.356,8.489zm6.711 82.132c0.399,-1.415 1.197,-4.208 1.596,-5.623 -4.208,0.036 -12.624,0.183 -16.833,0.219 0.291,2.576 0.871,7.762 1.161,10.338l-3.809 -0.363c-3.3,3.048 -6.529,6.167 -9.685,9.469 -0.943,-0.581 -2.902,-1.742 -3.883,-2.322 3.847,-4.425 7.473,-9.106 10.486,-14.076 -31.018,-0.435 -61.455,6.639 -92.182,10.085 -11.718,8.78 -30.292,8.707 -36.277,24.089 -4.172,8.561 6.82,13.241 12.079,17.304 -3.518,3.338 -6.675,7.147 -9.685,11.101 11.39,-4.498 18.392,-15.49 28.985,-21.367 14.656,-12.262 33.231,-17.414 51.043,-23.109 -9.795,5.151 -20.932,7.146 -30.764,12.334 0.436,5.805 -3.192,11.609 -1.559,17.268 6.493,2.939 14.075,1.633 20.968,2.83 -10.484,2.83 -25.539,-4.643 -31.271,7.727 16.107,-2.176 32.65,-1.668 48.43,-5.877 1.053,-1.233 3.193,-3.7 4.245,-4.934 3.301,6.204 6.494,12.48 9.577,18.792 0.182,-3.664 0.363,-7.291 0.508,-10.883 3.701,-1.125 7.365,-2.032 10.412,-4.39 3.628,-5.151 7.617,-10.085 12.879,-13.604 0.144,1.633 0.47,4.934 0.653,6.567 4.353,1.741 8.888,-1.597 13.277,-1.923 10.302,-1.524 20.496,-3.628 30.69,-5.696 5.913,3.374 13.895,4.825 19.699,0.436 2.286,3.156 4.571,6.384 6.784,9.613 -10.194,0.472 -20.497,-0.072 -30.727,0.145 8.489,6.82 19.662,3.302 29.457,2.721 6.675,-1.669 14.874,-0.472 19.953,-5.768 -3.229,0.254 -9.722,0.725 -12.951,0.943 -3.519,-2.721 -7.038,-5.478 -10.557,-8.271 11.282,-5.079 23.798,-4.607 35.625,-7.219 -0.473,-1.053 -1.451,-3.193 -1.959,-4.281 -26.156,2.612 -52.168,6.965 -78.396,9.178 25.866,-7.981 53.582,-7.147 80.172,-11.935 -0.398,-5.442 -0.798,-10.92 -1.268,-16.324 -22.057,-2.396 -44.332,-2.83 -66.534,-2.83 -2.575,-0.074 -7.763,-0.255 -10.339,-0.364zm168.255 37.584c4.862,-1.959 13.605,-4.498 8.997,-11.427 -18.719,-2.431 -36.495,9.105 -55.505,6.638l0.109 1.56c11.5,1.56 23.182,2.177 34.645,0.218 0.109,1.814 0.363,5.442 0.472,7.255 0.254,-1.741 0.726,-5.26 0.98,-7.001l9.142 2.14c0.253,2.721 0.725,8.163 0.979,10.92 -7.147,0 -14.439,0 -21.658,0 7.836,1.197 15.6,2.467 23.399,3.7 -0.507,-4.68 -1.015,-9.359 -1.56,-14.003zm-134.988 35.081c-23.109,-1.488 -47.633,5.478 -69.181,-6.095 -2.322,1.524 -4.643,3.12 -6.965,4.788 3.736,9.215 13.604,12.553 22.6,13.858 -12.465,2.588 -129.383,9.007 -105.349,17.957 37.801,1.271 76.654,-1.487 112.278,-14.909 15.962,-3.918 31.779,-8.416 46.617,-15.599zm-135.243 -26.628c-0.363,-4.898 -0.689,-9.795 -0.943,-14.693 -8.852,8.852 -22.311,14.838 -25.685,27.97 5.914,-1.596 11.646,-3.301 17.377,-5.224 2.975,-2.866 6.059,-5.55 9.251,-8.053zm-41.501 43.388c-1.053,-1.161 -3.228,-3.483 -4.317,-4.644 -12.697,-2.321 -30.473,-8.706 -36.749,7.364 -7.872,0.146 -15.781,-0.544 -23.726,-0.979 2.975,2.975 5.914,5.985 8.78,8.997 -0.291,1.415 -0.871,4.281 -1.161,5.695 5.115,0.834 10.157,1.741 15.164,2.575 4.934,-2.466 10.158,-1.451 14.983,0.327 10.194,-6.095 22.02,-5.695 33.41,-5.55 -1.705,-1.814 -3.482,-3.555 -5.295,-5.297l-0.727 0.255 -7.145 -5.298c1.705,-0.869 5.114,-2.574 6.783,-3.445zm135.677 43.315c0.509,-11.065 1.888,-22.348 -0.326,-33.267 -0.942,-0.653 -2.794,-1.994 -3.737,-2.648 -0.036,12.08 1.017,24.197 4.063,35.915zm24.123 33.007c-2.258,-12.81 2.4,-59.052 -9.648,-64.533 6.22,11.31 -6.539,55.919 9.648,64.533zm-22.436 -2.087c6.074,-3.5 -1.447,-13.247 -7.745,-10.387 -3.917,6.711 -6.747,14.003 -8.851,21.513 9.324,-0.254 18.248,-2.975 27.026,-5.769 -1.917,-4.75 -5.395,-6.535 -10.43,-5.357zm-13.695 25.999c-1.994,-6.53 -4.207,-12.988 -6.675,-19.299 -9.939,1.886 -14.837,10.484 -10.882,19.879 5.912,-0.254 11.754,-0.471 17.557,-0.58zm-45.056 -11.282c-4.607,-3.047 -7.473,-2.322 -8.561,2.286 4.68,3.083 7.546,2.321 8.561,-2.286zm43.352 16.652c-0.508,-5.152 -9.795,-3.665 -13.205,-1.633 0.036,5.297 10.085,3.772 13.205,1.633zm-178.835 42.427c-63.962,-21.832 -29.182,216.134 -45.89,337.17 54.903,-59.551 53.641,-259.83 45.89,-337.17zm371.505 -511.132c-1.996,-43.28 -1.198,-86.631 -1.017,-129.946 -0.942,-38.599 -1.341,-77.198 0.726,-115.762 0.399,-60.656 -0.58,-121.312 0.291,-181.931 8.524,7.401 12.515,18.321 16.288,28.586 6.929,22.492 11.318,46.073 11.645,69.617 -5.769,31.054 -3.773,62.832 -4.898,94.249 1.379,48.431 -0.036,96.86 0.11,145.291 0.472,26.012 -0.981,52.856 8.67,77.598 2.866,0.58 8.633,1.813 11.537,2.394 -0.727,0.653 -2.214,1.886 -2.94,2.503 -7.908,1.923 -15.744,4.245 -23.362,7.256 0,-87.973 -2.793,-176.019 -0.58,-263.992 0.689,-18.936 -2.902,-37.62 -7.256,-55.903 -0.98,35.551 3.809,71.176 1.125,106.8 -0.29,66.533 -1.342,133.176 2.538,199.672 0.545,5.26 2.322,10.266 3.701,15.345 -4.317,3.991 -8.742,7.764 -13.386,11.499 -0.798,-3.3 -2.394,-9.975 -3.192,-13.276zm-15.527 7.364c-2.358,0.363 -7.074,1.052 -9.432,1.415 -0.799,-2.104 -2.395,-6.349 -3.193,-8.453 1.633,-9.867 2.83,-19.807 3.374,-29.82 -2.286,-43.098 -0.689,-86.304 -2.902,-129.402 -1.56,-25.431 1.378,-50.86 -0.145,-76.291 -0.109,-25.249 -2.177,-51.406 6.711,-75.531 5.188,-14.401 3.374,-29.928 1.487,-44.729 -2.648,16.035 -1.741,32.65 -7.364,48.14 -6.167,17.34 -6.421,35.987 -5.188,54.162 5.007,77.307 -1.705,154.724 1.85,232.067 -0.072,5.95 1.923,12.48 -1.959,17.74 -8.416,5.551 -18.247,-2.068 -27.208,-3.628 8.924,-2.321 14.366,-9.432 16.942,-17.812 2.068,3.7 4.208,7.328 6.421,10.92 -1.233,-21.912 -1.487,-43.788 -1.197,-65.698 0.544,-58.19 -0.617,-116.379 -1.197,-174.568 -1.415,-32.287 -1.814,-64.646 -1.488,-97.006 3.918,-26.628 11.283,-52.784 23,-77.054 0.944,0.981 2.794,2.976 3.737,3.955 2.431,21.839 0.617,43.823 0.073,65.735 -0.799,84.453 0.798,168.907 -0.254,253.398 1.233,37.475 -0.146,75.021 -2.068,112.46zm-49.012 -7.582c9.833,-0.074 20.243,-0.363 29.059,4.752 3.845,5.007 2.431,11.682 3.12,17.523l4.861 0.036c0.145,-2.83 0.435,-8.489 0.581,-11.283 5.042,0.254 3.954,7.292 5.26,10.666 9.396,5.006 15.091,15.78 13.314,26.409 -0.327,16.724 -7.111,34.319 -1.669,50.68l2.14 5.297c-8.924,-0.399 -17.885,-0.218 -26.845,0.508 -4.861,-26.302 0.109,-53.474 -6.313,-79.738 -10.81,-5.441 -22.202,-9.65 -34.101,-12.262 2.795,-4.752 5.478,-9.976 10.593,-12.588z"/>
  <path class="fil0" d="M-4460.8 1512.785c-34.123,-30.884 -86.273,-26.599 -128.234,-17.716 -9.615,4.6 -27.853,8.571 -22.052,23.203 34.018,12.594 72.53,24.925 108.586,12.802 14.423,-4.545 31.092,-6.218 41.7,-18.289zm-130.012 0.052c30.256,-18.289 68.037,-13.639 99.914,-2.143 -30.779,14.737 -67.568,8.779 -99.914,2.143z"/>
  <path class="fil0" d="M-4510.814 1439.68l11.92 23.409 18.963 -21.254 16.641 21.423 -13.919 -39.411c-4.101,4.571 -16.177,20.632 -19.804,23.306l-11.653 -19.074 -17.543 17.349 -18.565 -14.945 -15.032 14.945c-4.493,-5.54 -8.692,-12.281 -12.873,-17.819l-8.465 17.349 -23.986 -14.632 -6.374 36.683 9.459 -20.797c5.068,5.121 9.405,10.921 14.003,16.512l16.273 -13.243 16.439 13.453 16.983 -11.915 11.035 12.132 16.498 -23.471z"/>
  <path class="fil0" d="M-4538.033 1411.356c3.814,-11.233 9.563,-24.089 5.329,-35.897 -5.381,-5.069 -13.9,-1.151 -20.536,-1.935 8.205,10.975 5.069,29.421 15.207,37.832z"/>
  <path class="fil0" d="M-4620.074 1405.766c23.149,6.951 19.282,-27.382 4.912,-35.221 -3.815,11.341 -4.755,23.306 -4.912,35.221z"/>
  <path class="fil0" d="M-4474.23 1372.532c-0.941,10.294 -1.985,20.641 -1.464,31.091 21.791,8.622 18.394,-17.034 16.356,-29.733 -5.015,-0.574 -9.981,-0.993 -14.892,-1.358z"/>
  <path class="fil0" d="M-4503.754 1359.103c-6.897,-17.402 -22.052,-30.936 -24.559,-49.957 1.097,-27.538 16.198,-52.621 17.139,-80.055 -20.589,2.769 -41.334,3.449 -62.027,4.233 5.174,18.603 11.183,37.1 20.484,54.189 15.938,24.663 -17.663,44.939 -18.029,69.812 10.974,-11.496 20.485,-24.35 29.63,-37.362 6.322,17.767 20.745,30.935 37.362,39.14zm-94.791 -87.633c-1.882,-17.871 -3.031,-35.847 -3.031,-53.771 41.595,-0.26 83.086,1.985 124.681,-0.574 -1.201,17.923 -1.672,35.899 -1.306,53.928 -3.031,1.149 -9.092,3.5 -12.123,4.649 -0.157,5.226 -0.209,10.504 -0.262,15.833 11.026,-0.26 22,-0.521 33.026,-1.149 -1.672,-29.471 -0.941,-58.995 -1.569,-88.468 -53.508,-3.448 -107.122,0.627 -160.684,0.523 0.94,30.048 -2.769,60.093 -0.575,90.088 12.751,-0.419 25.501,0.052 38.199,-1.098 5.54,-11.652 -7.734,-17.139 -16.356,-19.961zm57.638 15.676c-14.946,-9.248 -16.304,-31.091 -21.321,-46.82 14.631,-1.307 29.211,-2.247 43.895,-3.031 -8.205,16.304 -15.103,33.183 -22.574,49.851z"/>
  <path class="fil0" d="M-4620.388 1170.409c54.242,-1.777 108.743,0.156 162.828,-4.599 -0.052,-2.926 -0.157,-8.832 -0.209,-11.81 -14.632,-0.522 -29.264,-0.104 -43.895,0.366 -1.306,-36.161 -3.135,-72.269 -2.142,-108.481 15.885,0.521 31.875,0.418 47.709,-1.464 -2.926,-2.77 -5.957,-5.331 -9.093,-7.733 -26.91,-4.298 -124.281,-4.96 -154.727,-0.732l-0.471 134.453zm110.049 -17.611c-16.407,0.627 -32.867,1.359 -49.277,1.516l1.15 -105.086 47.083 -3.188c-1.254,35.534 -1.046,71.173 1.044,106.758zm-57.636 -104.144c0.626,34.906 1.306,69.865 0.731,104.824 -14.788,0.313 -29.576,0.627 -44.365,0.679 0.105,-34.802 -0.208,-69.604 -0.471,-104.406 14.684,-0.679 29.369,-0.784 44.105,-1.097z"/>
  <path class="fil0" d="M-4618.716 997.235c31.72,3.814 63.752,-1.621 95.523,1.933 22.68,1.098 49.486,3.396 67.723,-12.751 -14.057,-1.619 -28.166,-0.626 -42.17,-0.156 -0.68,-3.396 -1.934,-10.085 -2.613,-13.482 -12.279,0.052 -24.455,1.776 -36.004,5.958 -18.184,6.584 -37.833,3.082 -56.592,2.09 -2.404,-9.824 -4.651,-19.649 -6.637,-29.473 -4.858,-0.469 -14.578,-1.358 -19.439,-1.829 -0.26,15.886 -0.314,31.825 0.209,47.71z"/>
  <path class="fil0" d="M-4562.646 940.538c15.415,0.627 30.883,1.044 46.246,-0.523 3.082,-18.394 -15.258,-35.638 -33.287,-30.256 -8.674,7.943 -15.049,18.498 -12.959,30.779z"/>
  <path class="fil0" d="M-4616.208 856.981c43.215,0.523 87.058,-1.776 129.647,7.003 8.256,1.253 12.854,8.046 15.99,15.102 -25.867,1.463 -51.995,-2.353 -77.652,1.829 -22.992,-1.62 -46.35,-3.502 -69.29,-0.732 -1.517,2.142 -4.547,6.427 -6.063,8.569 9.669,1.307 19.544,4.546 29.368,2.353 25.135,4.231 50.636,1.044 75.875,-0.889 20.902,-1.098 41.909,0.105 62.863,-1.41 0.052,-14.894 -10.452,-25.711 -18.708,-36.894 -46.925,-2.874 -93.903,-6.845 -140.984,-5.121 -0.261,2.562 -0.784,7.682 -1.046,10.19z"/>
  <path class="fil0" d="M-4498.737 756.391c0.366,15.206 0.209,30.465 -0.052,45.775 0.731,7.89 -2.613,19.909 9.352,21.842 0.889,-27.643 -2.193,-55.286 0.157,-82.824 -20.902,-8.256 -16.459,-33.495 -16.513,-51.366 5.123,0.051 15.364,0.103 20.485,0.157 0.471,12.488 3.293,25.865 -3.083,37.518 2.195,3.71 4.494,7.368 6.898,11.078 3.449,-15.833 9.772,-37.361 3.188,-53.09 -11.758,-5.383 -25.974,-3.386 -37.938,0 -1.724,15.362 -1.463,32.137 6.742,45.879 3.657,7.316 10.921,13.587 8.778,22.887 -8.621,-6.009 -20.066,-11.182 -28.636,-2.194 9.877,3.343 20.223,4.338 30.622,4.338z"/>
  <path class="fil0" d="M-4577.33 736.795c17.611,-11.026 19.962,-37.729 4.389,-51.577 -11.495,-3.971 -25.499,-4.546 -36.577,0.575 -11.393,9.825 -6.69,27.957 -5.122,41.02 7.263,12.959 24.56,13.013 37.31,9.982z"/>
  <path class="fil0" d="M-4539.83 642.956c17.611,-11.027 19.962,-37.73 4.389,-51.577 -11.495,-3.972 -25.499,-4.547 -36.577,0.574 -11.393,9.825 -6.69,27.957 -5.122,41.02 7.263,12.959 24.56,13.013 37.31,9.983z"/>
  <path class="fil0" d="M-4584.383 821.919c5.277,-10.974 4.963,-22.993 1.515,-34.385 -5.487,0.628 -10.921,1.255 -16.356,1.934 -3.919,14.161 -0.053,27.747 14.841,32.451z"/>
  <path class="fil0" d="M-4571.006 563.227c26.859,-2.09 59.623,-4.86 78.382,18.707 10.504,26.911 12.802,57.01 28.271,82.146 -2.195,-10.138 -5.017,-20.119 -7.944,-30.048 -0.835,-3.03 -2.403,-9.143 -3.186,-12.227 -6.115,-22.574 1.41,-57.116 -26.285,-66.991 -26.442,-15.624 -57.115,-8.727 -85.803,-12.699 -2.77,-10.764 -2.822,-24.402 -14.474,-29.576 -6.324,-5.121 -13.901,0.157 -20.642,1.306 4.442,0.575 13.377,1.778 17.871,2.404 2.09,10.973 3.868,22.052 4.964,33.235 8.571,6.322 16.931,15.937 28.846,13.743z"/>
  <path class="fil0" d="M-4520.319 473.191c12.384,-3.814 17.139,9.511 23.62,16.722 5.956,-4.077 11.6,-9.249 18.655,-11.444 2.508,3.448 7.629,10.346 10.138,13.794 -0.889,-13.324 -7.108,-25.448 -11.236,-37.884 -9.145,5.644 -12.959,16.042 -18.551,24.716 -3.866,-8.412 -7.576,-16.669 -11.496,-24.976 -9.824,4.179 -9.667,16.459 -16.46,23.618 -5.591,-8.412 -7.525,-21.425 -19.282,-23.358 -0.836,7.786 -1.516,15.624 -2.194,23.515 -7.525,-4.494 -11.55,-11.339 -12.124,-20.693 -11.705,-1.045 -16.094,11.287 -22.678,18.497 -6.481,-6.53 -11.496,-14.683 -19.23,-19.699 -5.958,11.757 -11.758,23.776 -15.678,36.421 10.086,-3.03 14.475,-13.168 19.753,-21.267 6.01,6.427 12.227,12.751 18.603,18.968 3.553,-7.681 7.89,-14.892 12.699,-21.79 3.762,5.906 7.524,11.967 11.182,18.08 3.239,-0.627 9.72,-1.881 12.959,-2.507 0,-3.345 -0.052,-9.929 -0.105,-13.221 5.801,4.232 10.19,9.772 13.168,16.513 1.673,0.784 4.912,2.351 6.532,3.135 0.472,-4.286 1.307,-12.855 1.725,-17.14z"/>
  <path class="fil0" d="M-4606.221 374.425l-1.201 -37.467 -9.667 -0.418c0.678,13.22 -11.294,31.15 5.224,40.184 -0.835,7.787 -0.052,19.854 -1.045,27.693 46.612,-3.554 93.433,-0.419 140.149,-1.516 2.508,0 7.524,0.052 10.084,0.052 0.157,-1.515 -1.149,-8.723 -0.992,-10.239l-3.345 0c-46.089,-0.366 -92.281,1.045 -138.318,-0.732 -8.206,-5.069 8.256,-13.272 -0.889,-17.557zm12.124 -87.215c28.583,0.054 57.219,0.472 85.803,-0.104 2.925,0.262 8.779,0.836 11.756,1.15l-0.94 6.532c7.158,-1.881 14.266,-4.181 21.267,-6.584 -0.051,-2.613 -0.208,-7.839 -0.26,-10.399 -44.365,-11.497 -92.178,2.143 -136.386,-9.876 -1.725,6.322 -2.665,12.802 -3.449,19.387 3.709,0.417 11.025,1.254 14.684,1.672 0.209,4.546 0.678,13.638 0.889,18.184 -4.494,-0.784 -13.483,-2.299 -18.029,-3.083 0.313,3.136 0.887,9.406 1.15,12.542 14.632,3.971 29.733,2.247 44.574,1.149 35.585,-1.411 71.276,1.516 106.756,-1.881 0.889,-1.255 2.718,-3.814 3.605,-5.069 -11.913,0 -21.946,-1.096 -30.463,-8.726l-0.314 4.912c-32.66,-1.255 -65.267,1.881 -97.875,-0.157 -0.678,-4.912 -2.09,-14.737 -2.768,-19.649zm113.08 53.771c-0.366,9.877 -0.784,19.752 -0.366,29.733 1.358,1.359 3.971,4.077 5.329,5.435 5.383,-8.726 5.592,-18.916 3.972,-28.687 -0.209,-1.672 -0.731,-5.017 -0.993,-6.638 -1.985,0 -5.957,0.105 -7.942,0.157z"/>
 </g>
</svg>
