<?xml version="1.0" encoding="UTF-8"?>
<!DOCTYPE svg PUBLIC "-//W3C//DTD SVG 1.1//EN" "http://www.w3.org/Graphics/SVG/1.1/DTD/svg11.dtd">
<!-- Creator: CorelDRAW 2021 (64-Bit) -->
<svg xmlns="http://www.w3.org/2000/svg" xml:space="preserve" width="583px" height="2031px" version="1.1" style="shape-rendering:geometricPrecision; text-rendering:geometricPrecision; image-rendering:optimizeQuality; fill-rule:evenodd; clip-rule:evenodd"
viewBox="0 0 582.999 2031.055"
 xmlns:xlink="http://www.w3.org/1999/xlink"
 xmlns:xodm="http://www.corel.com/coreldraw/odm/2003">
 <defs>
  <style type="text/css">
   <![CDATA[
    .fil0 {fill:#000066}
   ]]>
  </style>
 </defs>
 <g id="__x0023_Layer_x0020_1">
  <metadata id="CorelCorpID_0Corel-Layer"/>
  <path class="fil0" d="M81.124 541.939c-2.939,-24.414 -0.907,-49.155 -0.508,-73.677 4.644,24.196 4.063,49.372 0.508,73.677zm201.989 -267.141c14.981,6.313 19.19,22.855 22.961,37.076 4.972,-5.442 10.231,-10.63 16.579,-14.511 -2.285,12.007 -11.789,19.988 -19.335,28.731 3.627,-1.451 7.291,-2.866 11.028,-4.281 3.664,-2.648 7.219,-5.441 10.847,-8.235 -0.327,-2.975 -0.98,-8.923 -1.306,-11.898 8.779,-11.5 18.102,-22.601 27.389,-33.737 2.793,-4.789 5.405,-9.65 8.198,-14.439 5.333,1.524 10.739,3.047 16.179,4.571 -4.281,14.548 -13.603,26.409 -24.087,37.002 -6.966,12.298 -19.154,19.589 -30.11,27.788l-3.809 2.794c3.7,4.933 9.577,9.541 7.945,16.542 -0.109,5.114 -0.399,10.23 -0.907,15.309 -16.644,0.428 -24.373,19.924 -27.813,24.56 0.036,0.195 22.373,-15.211 23.169,-15.442 4.825,6.277 -5.374,8.638 -7.321,23.275 1.534,-4.934 14.762,-18.256 16.717,-24.158 4.608,14.51 -19.947,40.88 -23.43,54.23 2.647,-3.119 20.71,-22.634 23.358,-25.791 15.997,0.907 32.576,1.634 47.269,8.925 -7.002,4.534 -13.823,9.251 -21.332,12.842 0.545,1.451 1.669,4.353 2.213,5.804 1.488,-0.834 4.426,-2.466 5.877,-3.301 1.741,-1.016 5.26,-3.011 7.037,-4.027 2.576,-1.741 7.8,-5.187 10.412,-6.892 4.136,5.187 8.235,10.484 12.043,15.962 -4.642,3.482 -9.213,7.073 -13.857,10.519 -3.882,3.81 -7.981,7.365 -11.863,11.101l6.894 -0.036c21.438,-14.583 40.158,-32.867 60.363,-49.083 10.376,-8.125 21.186,-17.086 34.645,-19.299 15.454,-2.031 31.343,-1.922 46.651,1.488 2.14,-0.508 6.385,-1.524 8.525,-1.995 -2.322,-22.528 -2.756,-45.164 -5.006,-67.656 -5.876,-21.766 -9.758,-44.003 -15.49,-65.769 10.882,17.267 19.009,36.168 23.688,56.083 17.631,-14.511 31.924,-32.83 42.952,-52.746 6.494,-15.563 16.324,-31.924 11.173,-49.373 -27.461,-15.272 -58.224,-22.201 -88.587,-29.166 -6.457,-2.394 -13.35,-0.072 -18.61,3.737 22.745,2.321 44.476,12.733 61.126,28.259 1.778,0.218 5.406,0.653 7.219,0.871 -3.192,-4.68 -6.312,-9.36 -9.359,-14.039 15.598,3.447 29.855,10.846 44.112,17.848 0.108,11.5 -2.54,22.673 -8.271,32.685 -4.861,-5.877 -9.686,-11.718 -14.692,-17.412 0.326,0.978 0.943,2.902 1.233,3.881 3.193,6.783 6.82,13.422 9.178,20.569 -1.523,5.587 -3.664,10.919 -6.385,16.034 -4.135,-7.111 -8.271,-14.184 -13.458,-20.532 3.193,7.581 7.182,14.8 11.572,21.838 -4.281,4.426 -8.017,9.759 -13.677,12.443 -6.456,-9.214 -10.338,-19.807 -15.163,-29.855 -0.217,-1.743 -0.653,-5.224 -0.87,-6.966 -11.718,-7.292 -16.578,-20.895 -25.974,-30.4 -12.444,-13.676 -29.602,-21.076 -44.875,-30.835 20.57,4.789 37.51,17.921 56.375,26.736 9.033,3.918 14.619,12.153 19.589,20.242 1.995,-4.352 4.135,-8.633 6.348,-12.914 -3.41,-3.011 -6.711,-6.095 -10.012,-9.106 -19.009,-15.019 -42.335,-23.035 -64.936,-30.944 2.431,0.291 7.256,0.871 9.687,1.161 3.047,-6.348 -4.608,-11.209 -10.739,-7.473 -0.217,-1.161 -0.689,-3.518 -0.906,-4.715 39.65,-3.701 82.274,-3.991 117.936,16.542 2.103,-19.299 1.558,-38.889 -0.219,-58.152 -4.643,-15.708 -10.375,-31.161 -17.412,-45.963 -3.048,4.064 -5.297,9.215 -10.666,10.557 -21.983,8.453 -43.604,17.849 -65.008,27.679 23.98,-14.8 49.591,-26.808 74.114,-40.774 -5.297,-3.012 -9.687,-9.178 -16.252,-8.924 -6.457,2.068 -11.863,6.276 -17.667,9.541 -17.558,10.592 -36.749,18.718 -52.311,32.322 -12.225,9.685 -22.346,21.766 -34.898,31.052 5.115,6.566 10.376,13.133 14.148,20.606 0.944,14.111 -3.337,31.233 -17.558,37.256 -15.164,5.513 -28.259,-6.167 -41.572,-11.246 -4.934,-11.319 -7.981,-24.451 -3.048,-36.313 6.094,-12.117 21.802,-12.805 33.629,-12.298 2.284,-4.498 4.171,-9.105 6.275,-13.676 -0.544,5.297 -1.125,10.593 -1.559,15.925l7.907 -3.519c19.083,-29.384 42.771,-57.751 76.037,-71.428 1.124,-0.617 3.374,-1.85 4.497,-2.467l0.11 -3.12c-10.013,-13.059 -24.125,-21.947 -37.583,-31.052 -20.459,-15.164 -46.616,-19.227 -71.392,-20.75 -6.385,-2.395 -8.198,4.787 -8.344,9.359 -1.777,28.55 0.689,57.281 -2.974,85.721 1.197,9.758 2.902,19.481 2.322,29.384 -1.524,1.343 -4.608,4.063 -6.131,5.442 -2.576,-0.326 -7.727,-0.944 -10.303,-1.233 3.265,-1.705 6.747,-2.793 10.483,-3.302 -0.326,-10.883 0.074,-21.802 -0.833,-32.649 -6.276,-19.879 -19.627,-36.095 -31.996,-52.42 -4.608,-17.92 -21.586,-32.43 -39.796,-35.187 -0.109,11.717 -1.56,23.471 -0.109,35.151 -8.38,9.541 -14.438,21.005 -23.87,29.565 -7.364,8.2 -23.108,0.546 -27.026,13.423 6.966,-3.192 14.039,-4.498 21.258,-3.954 2.866,2.467 8.634,7.473 11.5,9.976 -18.973,6.639 -30.11,24.523 -44.439,37.474l1.959 0.798c15.2,-14.039 26.483,-36.059 49.264,-38.09 -2.104,8.306 2.793,14.619 7.799,20.314 -5.986,25.031 -25.756,44.04 -47.812,55.793 -16.506,7.691 -23.689,25.104 -34.971,38.236 -1.052,2.83 -3.156,8.453 -4.208,11.282 9.505,-3.627 18.864,-7.799 28.549,-11.028 17.232,-2.648 33.194,-9.795 46.217,-21.513 4.426,6.567 8.779,13.242 12.515,20.28 7.147,2.358 14.548,3.301 22.092,4.027l-0.797 4.861c-22.166,-3.846 -40.521,9.286 -58.586,19.734 -5.406,3.301 -10.92,6.457 -16.471,9.396 -12.806,7.254 -26.481,13.204 -37.836,22.709 -13.023,10.701 -29.457,17.412 -39.505,31.524l-5.042 2.14c2.066,-16.686 8.307,-32.721 19.19,-45.636l-7.182 0.871c-4.209,5.55 -8.054,11.355 -11.9,17.123 -0.217,-5.986 -0.399,-11.936 -0.616,-17.92 -2.939,4.388 -5.877,8.778 -8.852,13.131 -5.15,-19.843 5.333,-38.744 14.909,-55.321 1.561,2.175 4.68,6.565 6.277,8.778l1.777 -2.974c-2.286,-3.809 -5.622,-6.022 -10.048,-6.675 1.197,-5.115 2.576,-10.194 3.845,-15.309 1.886,-12.769 6.529,-24.995 16.324,-33.918 -0.254,5.041 -0.762,15.054 -1.015,20.061l1.124 -3.193c0.472,-17.595 11.536,-31.198 23.144,-43.278l0.254 -2.032c-11.173,7.473 -18.791,18.32 -26.264,29.166 -12.442,10.231 -16.325,26.266 -20.459,41.03 -6.458,22.962 -23.036,42.95 -22.456,67.728 -1.523,14.982 4.425,30.762 17.522,38.961 5.26,1.851 11.68,9.758 16.977,3.772 6.457,-3.3 2.285,-10.555 -1.342,-14.111 15.563,-16.869 37.51,-29.311 60.763,-30.436 6.493,7.545 12.443,15.635 15.599,25.249 -0.109,-4.39 -0.109,-8.743 0,-13.06 4.535,-1.596 9.069,-3.229 13.641,-4.898zm39.105 22.71c-10.992,3.084 -8.198,-14.039 -10.049,-20.461 1.851,-2.756 3.664,-5.513 5.478,-8.306 2.612,-3.374 5.986,-12.879 11.464,-7.111 1.596,1.016 4.825,2.975 6.457,3.955 0.543,-13.132 10.52,-20.788 22.238,-24.052 -6.712,21.149 -17.522,42.516 -35.588,55.975zm11.753 48.792c-1.631,-7.619 1.815,-14.657 8.417,-18.465 -0.943,6.638 -1.379,15.237 -8.417,18.465zm9.614 1.777c7.727,-12.007 16.034,-23.688 24.16,-35.478 2.83,-6.095 5.55,-12.225 8.561,-18.283 6.349,-12.371 12.697,-24.777 18.283,-37.547 26.374,1.451 52.82,-2.757 79.12,-0.471 -1.233,2.176 -3.7,6.529 -4.934,8.67 1.705,-0.544 5.043,-1.633 6.748,-2.177l1.27 5.007c3.41,10.374 4.099,21.294 4.606,32.141 -0.87,1.377 -2.576,4.099 -3.409,5.478 1.378,16.142 3.483,32.865 -1.887,48.537 -4.172,0.617 -8.307,1.306 -12.407,2.068 -14.365,2.104 -28.948,9.215 -43.495,4.499 -20.315,-5.442 -41.355,-6.53 -61.996,-9.904l-2.685 -0.399c-2.975,-0.545 -8.961,-1.597 -11.935,-2.141zm96.568 24.704c8.017,-0.943 16.071,-2.503 23.761,-5.187 5.006,-1.633 10.158,-3.228 15.273,-4.752 -14.729,4.68 -26.373,14.946 -39.796,22.093 -0.943,2.104 -2.829,6.347 -3.773,8.487 -5.658,-3.699 -10.992,-7.762 -16.142,-12.006 7.218,-5.623 14.764,-5.986 21.439,0.979 -0.218,-2.431 -0.58,-7.219 -0.762,-9.614zm-96.568 -15.634l3.156 -1.669c27.317,-2.902 53.799,5.151 80.535,9.178 -16.108,12.189 -31.924,24.957 -49.736,34.571 -0.617,-1.451 -1.85,-4.39 -2.467,-5.877 -14.329,3.265 -28.949,1.851 -43.278,-0.29l-0.145 -3.373c4.535,-10.629 8.344,-21.548 11.935,-32.54zm-15.78 -224.117c-9.215,15.381 -15.236,32.83 -28.368,45.564l0.217 0.652c-4.172,2.54 -8.307,5.043 -12.442,7.583l-0.11 3.663c-7.11,1.85 -14.256,3.773 -21.366,5.478 -5.37,-15.708 11.536,-22.854 21.874,-29.965 0.762,2.721 2.213,8.163 2.939,10.847l2.213 -0.036c0.943,-4.208 1.959,-8.417 3.011,-12.588 7.037,-14.656 16.216,-28.187 25.828,-41.21 6.675,-4.644 6.276,5.767 6.204,10.012zm5.224 -18.791c-7.872,-1.669 -15.019,-4.535 -13.459,-14.33 2.068,0.146 6.24,0.436 8.344,0.544 -0.436,-0.87 -1.234,-2.683 -1.633,-3.59 -1.705,-0.508 -5.079,-1.597 -6.747,-2.104 0.108,-2.105 0.326,-6.313 0.435,-8.417 -1.887,0.363 -5.696,1.161 -7.618,1.524 -1.523,-17.267 12.334,-38.562 31.67,-34.681 14.619,0.871 16.542,18.827 25.792,27.425 9.25,6.929 4.897,29.529 21.186,23.471 -3.773,4.752 -3.084,15.019 -10.775,15.491 -15.055,2.503 -30.545,1.85 -45.2,6.421 -4.897,-11.391 8.017,-11.682 16.07,-13.024 8.489,-1.161 17.231,-1.451 25.502,-4.208 -14.727,-0.289 -29.492,1.197 -43.567,5.478zm24.849 118.769c-4.027,2.612 -13.677,-0.653 -12.298,-6.094 3.991,-3.627 14.511,0 12.298,6.094zm20.351 -23.217l-6.711 1.669c0.108,-2.358 0.326,-7.038 0.436,-9.396 -2.468,0.109 -7.401,0.29 -9.868,0.399 1.198,0.29 3.627,0.907 4.862,1.197 2.104,2.25 1.958,4.753 -0.436,7.619 -8.09,0.833 -16.216,1.088 -24.27,1.197 2.431,-8.634 -7.29,-8.924 -12.369,-12.189 -11.718,-5.224 -22.638,-19.263 -15.527,-32.214 4.571,-7.726 5.659,-21.693 15.889,-23.072 5.007,12.624 -0.979,26.518 1.452,39.615 6.347,11.317 20.387,4.897 30.291,9.467 5.115,0.074 10.265,-0.036 15.417,-0.326 -2.612,-4.788 -5.333,-9.504 -8.089,-14.184 -2.612,-3.991 -5.224,-8.017 -7.836,-12.008 -0.218,2.648 -0.726,7.981 -0.98,10.629l-2.104 -0.362 -0.653 6.385c-8.271,0.399 -14.112,-4.898 -19.589,-10.231 -0.037,-10.049 -2.648,-21.693 4.68,-30 4.788,-7.619 14.873,-8.78 22.999,-6.603l-5.043 6.312 1.524 3.556c1.958,-3.302 3.99,-6.567 6.057,-9.832 6.784,-2.467 13.568,-4.787 20.715,-6.276 -6.421,15.418 -17.486,38.091 -0.798,50.969 0.363,2.213 1.052,6.638 1.415,8.852 1.487,0.507 4.534,1.523 6.021,1.996l-1.813 2.901c-0.617,1.959 -1.886,5.84 -2.503,7.799 1.414,0.871 4.244,2.685 5.659,3.556 15.163,-0.545 30.363,-0.907 45.454,-2.794 3.519,3.011 7.111,6.095 10.303,9.578 9.795,10.846 13.313,25.538 17.993,38.996 -24.414,-0.797 -48.793,1.379 -73.169,0.654 2.031,-10.702 5.948,-22.782 0.072,-32.903 -7.727,3.555 -12.806,-4.862 -18.864,-8.053 -0.145,-0.726 -0.472,-2.177 -0.617,-2.903zm104.803 -70.014c-7.545,0.109 -15.019,0.653 -22.492,1.27 6.784,-1.56 13.677,-3.338 20.751,-3.011l-0.146 -2.793c29.166,-3.628 58.878,-17.231 88.297,-6.458 6.421,0.4 6.095,7.8 8.272,12.189 -17.34,-2.539 -34.608,-7.399 -52.275,-5.984 -13.967,1.197 -27.969,3.3 -42.008,1.849l-0.399 2.938zm-53.616 -27.098l-1.525 -0.073c0.654,-27.679 11.464,-54.269 26.446,-77.232 3.629,-6.059 9.976,-9.541 15.418,-13.786l-0.617 7.183c2.14,-0.362 6.385,-1.124 8.525,-1.487 -0.544,6.276 -2.14,12.333 -5.877,17.485 -10.411,16.325 -20.678,32.758 -32.467,48.103 -4.753,5.804 -7.872,12.66 -9.903,19.807zm-37.873 -9.614c-7.328,-1.196 -7.546,-9.831 -12.153,-14.256 -11.319,-11.789 -18.065,-27.062 -29.348,-38.816 -21.947,-10.302 -40.702,17.195 -41.282,36.639l-8.09 0.871c3.773,-18.792 15.961,-34.463 27.824,-49.009 14.438,-0.328 29.13,4.642 38.38,16.215 11.645,14.076 18.502,31.343 24.669,48.356zm24.885 -34.135c5.478,-12.589 8.198,-25.938 9.105,-39.615 9.795,16.253 -1.487,33.702 -3.591,50.316 -3.192,13.603 -1.233,28.295 -6.856,41.283 -2.793,-17.16 -1.886,-34.971 1.342,-51.984zm-84.85 67.981c8.198,-3.482 3.736,10.049 -1.161,3.084l1.161 -3.084zm169.157 95.698c-6.638,-8.017 -12.226,-16.796 -18.646,-24.922 -8.017,-7.799 -17.595,-13.785 -25.647,-21.512 27.605,5.187 44.837,30.4 63.809,48.901 7.401,13.494 15.455,27.026 21.259,41.247 -3.664,4.135 -7.546,8.016 -11.355,11.934 -8.017,-19.371 -15.128,-39.867 -29.42,-55.648zm-4.607 131.321c-0.399,6.167 -11.681,7.328 -12.153,0.654 1.161,-4.97 11.028,-6.24 12.153,-0.654zm-84.597 28.659c0.979,-2.394 2.975,-7.183 3.99,-9.577 4.825,3.337 9.686,6.711 14.728,9.867 -1.596,2.539 -4.788,7.618 -6.42,10.157 -4.244,-3.374 -8.344,-6.856 -12.298,-10.447zm-24.378 9.758c4.534,-0.073 9.07,0 13.677,0.217 -2.576,-7 1.487,-12.079 8.706,-12.733 3.083,4.752 6.602,9.251 10.194,13.713 -3.701,2.104 -7.365,4.244 -10.956,6.385 -4.789,4.752 -10.158,8.924 -15.6,12.879 -2.248,-6.748 -4.243,-13.605 -6.021,-20.461zm101.43 -281.361c-8.453,2.758 -16.398,6.676 -24.633,9.941 7.873,-6.241 16.869,-10.666 25.865,-15.056 -0.326,1.306 -0.942,3.846 -1.232,5.115zm7.762 -3.482c-1.85,-1.161 -3.664,-2.358 -5.369,-3.519 22.42,-9.831 45.6,-17.703 69.071,-24.704 2.394,3.7 4.644,7.509 6.784,11.427 -23.907,2.176 -49.663,4.135 -70.486,16.796zm79.99 46.072c-35.877,-11.936 -74.512,-16.471 -112.131,-12.262 19.771,-6.422 40.957,-7.401 61.344,-11.464 17.05,-4.788 33.556,3.301 49.953,7.147 0.254,5.514 0.544,11.064 0.834,16.579zm-2.031 -39.071c-28.224,-9.795 -57.934,-3.156 -85.976,3.373 21.839,-12.769 48.103,-19.843 73.497,-18.972 9.032,-1.306 11.028,8.997 12.479,15.599zm-245.048 -93.956c-0.617,-5.877 -1.125,-11.754 -1.451,-17.63 11.863,3.699 24.631,10.81 27.788,23.906 -8.852,-2.068 -17.523,-4.353 -26.337,-6.276zm111.55 68.816c16.687,-21.184 27.28,-46.579 44.983,-66.966 5.006,2.757 9.94,5.587 15.019,8.417 -8.671,10.229 -19.589,18.319 -27.208,29.419 1.996,-0.689 5.914,-2.104 7.909,-2.793l-0.581 -3.337c7.799,-5.841 14.91,-12.589 22.492,-18.791 1.922,1.595 5.768,4.788 7.69,6.42 -8.815,3.991 -16.832,9.469 -25.321,14.003 -9.359,7.292 -17.159,19.517 -29.565,20.823 -4.462,5.042 -7.4,12.551 -15.418,12.805zm-107.269 248.93c6.601,0.399 5.114,11.137 -0.871,11.281 -6.82,-0.107 -4.643,-10.701 0.871,-11.281zm-273.925 196.909c2.104,-19.553 -1.632,-39.033 -0.689,-58.587 0.254,-6.057 -2.648,-11.644 -3.918,-17.485 -5.115,-5.405 -10.375,-10.738 -16.106,-15.49 6.891,26.301 7.618,53.616 6.493,80.643 -1.561,2.394 -4.679,7.147 -6.239,9.541 6.746,0.29 13.639,0.688 20.459,1.378zm141.974 25.284c-0.618,5.242 -1.263,10.485 -2.092,15.709 -0.53,-3.696 0.282,-9.094 2.092,-15.709zm3.426 -10.803c-1.363,3.866 -2.52,7.487 -3.426,10.803 0.545,-4.625 1.069,-9.249 1.681,-13.857 0.585,1.017 1.167,2.035 1.745,3.054zm-172.426 -117.397c-7.618,-0.581 -15.163,-1.161 -22.745,-1.742 0.363,-0.87 1.087,-2.539 1.451,-3.41l-2.14 -0.072c-4.571,3.7 -9.686,7.654 -9.106,14.256 10.702,3.12 23.181,7.11 29.021,17.449 7.038,24.052 4.354,49.41 5.515,74.113 -3.048,1.161 -6.023,2.359 -8.961,3.628 10.992,8.743 20.606,20.46 23.254,34.608 1.378,19.952 0.543,40.013 -1.089,59.965 2.467,2.467 4.534,5.26 6.167,8.416 -1.814,-1.596 -5.404,-4.825 -7.219,-6.421 -2.212,6.675 -8.235,14.294 -3.483,21.258 3.374,-0.109 6.457,-1.234 9.323,-3.409 3.955,-0.835 7.836,-2.032 11.609,-3.629 -0.87,-1.885 -2.576,-5.658 -3.446,-7.545 0.181,-23.761 0.29,-47.486 1.124,-71.211l4.862 -2.103c-0.363,29.202 0.181,58.404 0.181,87.607 -3.047,-0.218 -9.178,-0.617 -12.226,-0.835 0.327,2.213 0.98,6.675 1.306,8.888 -1.16,-1.451 -3.446,-4.353 -4.607,-5.804 -7.654,1.306 -15.235,0.036 -22.709,-1.161 -6.965,6.349 -14.874,11.754 -20.786,19.118 0.581,6.892 5.658,12.66 11.173,16.506 0.762,0.617 2.285,1.886 3.047,2.539 3.519,4.027 6.748,8.38 10.484,12.335 3.846,-0.364 6.893,-2.213 9.179,-5.66 8.089,-1.306 16.215,-2.539 24.305,-4.063 -1.923,-1.016 -5.805,-3.047 -7.727,-4.063 -11.283,-3.918 -22.818,-6.855 -34.101,-10.664 -1.523,-0.472 -4.533,-1.415 -6.058,-1.852 0.11,-2.175 0.328,-6.492 0.4,-8.669 1.668,-0.435 4.933,-1.306 6.565,-1.741 16.034,-5.66 32.649,1.487 48.757,3.12 0.144,-5.225 0.29,-10.448 0.398,-15.636 20.46,12.842 37.583,30.254 58.296,42.661 1.96,11.427 2.104,23.036 0.29,34.499 -15.054,-0.253 -30.072,-0.145 -45.055,-0.652 0.327,-1.851 1.052,-5.587 1.415,-7.474 -14.656,-1.886 -29.855,-3.228 -42.226,-12.044 -9.903,0.437 -25.901,-3.628 -27.425,10.521l-1.524 4.317c7.51,-1.234 8.671,4.571 9.432,10.121 -3.7,-1.923 -7.364,-3.919 -10.919,-5.95 1.886,8.162 6.965,15.345 15.273,17.74 4.244,1.414 -0.436,6.203 -0.653,8.924 -0.69,-1.596 -2.068,-4.789 -2.757,-6.421 -14.765,3.41 4.897,21.983 13.639,15.672 5.95,47.231 0.544,95.152 4.209,142.53 -2.25,13.857 2.067,27.679 1.161,41.609 0.326,24.196 -2.54,48.43 -0.11,72.59 1.561,122.977 -0.072,246.099 3.664,368.932l5.406 0c1.378,-19.045 -2.503,-38.599 2.612,-57.208 0.217,19.407 3.809,38.598 3.954,58.042 5.659,-2.467 3.773,-9.359 4.571,-14.22 3.192,-109.991 1.052,-220.09 1.741,-330.153 1.125,-74.766 -0.762,-149.641 3.555,-224.334 0.218,-15.128 -0.725,-30.327 0.871,-45.382 1.559,-1.052 4.679,-3.193 6.239,-4.245 21.512,2.866 42.807,-6.493 64.21,-2.176 10.049,1.523 20.424,1.088 30.436,3.265 10.847,41.537 7.074,85.322 8.053,127.911 1.015,35.478 -10.992,69.614 -10.302,105.057 -4.317,34.898 -4.354,70.122 -7.291,105.166 -4.391,57.389 -5.516,115.141 -4.209,172.676 -4.317,30.617 -1.777,61.743 -5.405,92.469 -10.774,172.604 -9.831,345.679 -9.904,518.573 0.544,34.281 -2.938,68.454 -2.467,102.735 25.684,11.645 53.907,17.739 82.021,18.9 10.013,-11.645 4.39,-28.005 6.095,-41.863 2.322,-23.435 -2.213,-48.901 9.759,-70.34 9.395,-17.704 19.371,-35.116 28.586,-52.928 20.895,-34.027 25.901,-74.621 33.555,-113.074 6.421,-4.824 12.916,-9.649 18.61,-15.381 14.655,-15.454 32.794,-27.715 44.512,-45.854 20.895,-28.804 32.903,-63.158 38.598,-98.019 10.121,-49.953 14.728,-101.502 34.462,-148.987 7.619,-21.84 19.264,-41.864 31.343,-61.489 14.439,-24.051 12.407,-52.964 13.314,-79.845 -0.182,-15.672 2.322,-31.234 2.104,-46.869 -0.399,-68.998 0.906,-137.996 -1.343,-206.958 0.11,-44.692 -7.581,-88.878 -9.25,-133.497 -6.167,1.487 -12.153,3.519 -18.465,4.171 -29.565,2.72 -58.695,9.179 -88.37,11.101 -7.037,0.29 -18.029,5.296 -22.709,1.85 5.696,-2.939 11.972,-4.1 18.829,-3.446 -2.322,-1.597 -4.644,-3.157 -6.929,-4.716 -12.624,3.447 -25.648,4.788 -38.599,5.985l0.181 2.068c7.22,-0.29 14.657,-1.814 21.767,0.653 -6.675,6.131 -17.667,4.281 -26.011,6.675 -35.188,3.338 -71.972,12.841 -106.471,0.689 -0.944,-5.986 -0.581,-12.008 -0.508,-17.993 -0.726,-11.282 -2.83,-22.455 -2.939,-33.738 2.395,-1.704 7.183,-5.114 9.577,-6.819l0.109 7.401c0.436,-1.669 1.27,-5.043 1.704,-6.712 7.8,5.986 17.269,8.344 26.846,9.541 -0.073,2.502 -0.181,7.545 -0.254,10.048 -0.653,4.571 -1.451,9.106 -2.177,13.641 -0.761,5.079 -1.378,10.229 -1.85,15.38 -4.135,1.705 -8.271,3.447 -12.407,5.007 5.369,1.016 10.231,3.337 14.511,6.965 2.032,-7.836 3.264,-15.852 3.773,-23.87 5.696,0.436 11.354,0.87 17.086,1.451l-8.199 6.312c2.866,2.322 5.732,4.644 8.634,7.001 1.052,-5.55 2.177,-11.1 3.483,-16.578l0.907 -2.466c0.798,-1.814 2.322,-5.406 3.12,-7.22 15.49,-9.831 34.898,-5.079 52.165,-8.416 0.98,-0.362 3.011,-1.125 3.991,-1.487 7.219,1.051 14.437,2.575 21.802,2.394 -7.182,-0.835 -12.589,-5.804 -18.283,-9.685 -8.779,0 -17.485,0.362 -26.192,0.506 20.932,-2.139 40.811,-10.047 61.851,-11.426 0.835,-1.995 2.54,-6.022 3.375,-8.017 -8.526,1.414 -16.833,3.083 -25.177,4.933 -13.893,3.81 -28.296,4.68 -42.588,4.68 0.181,-7.255 -4.861,-16.724 1.959,-22.128 10.158,-7.727 22.999,-10.339 35.188,-13.169 0.507,7.364 1.051,14.764 1.524,22.166 -1.67,1.705 -4.934,5.15 -6.603,6.855 4.643,-1.052 9.287,-2.14 13.966,-3.229 0.109,-0.834 0.327,-2.465 0.399,-3.3 -4.534,-8.271 -6.747,-17.449 -8.235,-26.664l4.281 -0.435c13.568,-1.741 27.281,-0.87 40.957,-1.125 1.632,10.412 -5.623,17.014 -15.345,18.393 -5.08,2.576 -12.262,3.156 -15.019,8.778 22.491,2.939 46.651,-10.12 70.305,-7.363 -11.9,3.374 -23.944,6.929 -36.422,6.456 -0.436,1.634 -1.343,4.861 -1.778,6.494 9.83,-1.85 20.133,-2.975 29.493,1.705 -6.385,10.448 -18.502,13.712 -28.84,18.646l-3.555 3.701c14.039,-4.063 29.021,-14.91 43.714,-7.292 7.871,3.12 9.866,12.297 14.074,18.827 -25.683,5.043 -51.222,11.21 -77.305,13.423 2.105,1.74 4.244,3.483 6.422,5.297 12.696,-3.629 25.973,-3.956 38.887,-6.567 14.91,-2.793 29.602,-8.235 45.02,-6.784l17.384 -12.959c3.554,-9.395 4.245,-19.372 1.741,-29.094 -3.337,-0.399 -6.637,-0.762 -9.902,-1.125 2.61,-5.369 5.44,-10.772 10.409,-14.365 -7.183,-9.903 -5.731,-21.475 -4.134,-32.831 -2.104,-0.871 -23.588,9.841 -25.692,8.97 2.721,-9.722 20.614,-32.259 20.758,-42.307 3.882,-12.952 7.981,-26.446 16.941,-36.93 7.111,-8.416 13.784,-17.195 19.408,-26.7 11.319,-18.973 31.017,-33.737 34.717,-56.627 0.363,-8.018 7.726,-10.992 14.256,-13.312 -1.595,-1.018 -4.787,-3.085 -6.384,-4.102 4.099,-17.338 -8.243,-22.301 2.35,-36.956 -3.955,2.685 -11.899,8.017 -15.889,10.702l-4.172 -2.612c7.727,-6.494 13.967,-14.838 23.218,-19.372 4.316,-5.405 7.544,-11.572 11.063,-17.522 10.847,-18.03 8.816,-39.94 14.474,-59.566 -10.157,11.428 -21.076,23.29 -35.623,28.985 6.821,-13.422 22.383,-18.936 31.271,-30.944 1.814,-1.088 5.477,-3.228 7.291,-4.317 7.11,-23.216 1.487,-48.283 -4.1,-71.282 -1.921,1.921 -3.809,3.845 -5.658,5.767 -8.271,-7.835 -19.01,-2.176 -26.881,3.012 0.29,1.305 0.833,3.88 1.125,5.186 -5.66,-3.518 -11.174,-7.037 -16.978,-10.194 5.84,6.639 12.479,12.553 18.355,19.191l0.689 0.835c-4.896,11.136 -9.358,25.03 -20.786,30.871 -1.487,-2.975 -4.426,-8.924 -5.877,-11.863 -1.088,1.85 -3.264,5.551 -4.353,7.437 -0.072,0.436 -0.18,1.343 -0.254,1.778 -4.57,2.83 -9.105,5.695 -13.531,8.634 -5.804,-2.504 -11.68,-5.006 -17.448,-7.437 8.597,11.174 20.786,20.387 24.922,34.427 3.337,8.561 -0.472,17.484 -1.996,26.01 -2.031,-0.835 -6.058,-2.576 -8.09,-3.447 -2.865,-12.479 -3.881,-25.248 -6.13,-37.836 -6.711,1.124 -13.386,2.213 -20.061,3.192 -1.161,-2.031 -3.483,-6.166 -4.644,-8.198 -17.512,-21.064 -10.404,-54.563 -34.796,-91.88 -0.009,14.161 -19.08,52.162 26.191,96.088 1.379,1.378 2.073,5.498 3.453,6.839 2.72,8.779 14.403,15.869 23.436,19.606 2.322,17.123 7.582,33.846 7.835,51.223 0.254,10.883 -3.119,21.403 -4.498,32.141 -8.996,-20.497 -26.446,-35.479 -42.624,-50.243 -9.578,-9.286 -17.668,-24.559 -7.147,-36.205 -1.089,-0.979 -3.265,-2.902 -4.39,-3.881 -0.58,-0.689 -1.777,-2.103 -2.394,-2.83 -1.415,-8.161 -7.908,-13.095 -14.329,-17.412 -10.846,3.773 -21.404,8.416 -31.016,14.764 -0.109,4.535 -0.218,9.069 -0.218,13.604 12.516,-3.737 23.289,-11.753 35.987,-15.054 -10.92,11.716 -25.068,20.06 -34.427,33.411 -13.785,-10.702 -21.585,-26.591 -27.643,-42.517l-0.979 2.539c-4.535,11.428 -17.631,15.527 -25.212,24.523 -14.257,13.423 -19.444,32.685 -26.229,50.389 1.017,5.332 1.923,10.665 2.938,16.034 -7.907,1.269 -15.743,2.866 -23.434,4.861 -1.959,9.032 -10.992,11.68 -18.356,14.909 -5.695,2.286 -11.462,4.499 -17.123,6.784 1.888,4.97 3.882,9.904 6.022,14.801 1.742,-0.472 5.224,-1.451 6.966,-1.959 18.21,-6.82 32.649,-22.165 52.746,-23.978 0.036,5.731 0.036,11.463 0.036,17.194 1.632,-5.223 3.265,-10.484 5.26,-15.563 10.448,-2.14 21.113,-2.902 31.597,-4.97 -2.431,5.623 -4.607,11.355 -6.095,17.269 -0.943,3.41 -1.741,6.856 -2.503,10.338l-0.725 3.373c-1.161,4.644 -2.467,9.251 -3.882,13.822 -0.29,0.871 -0.871,2.612 -1.161,3.483 -2.031,12.805 -14.728,12.515 -24.813,13.821 9.65,-0.907 19.371,-0.725 29.094,-0.435 -0.906,9.541 2.721,22.817 -6.13,29.348 -21.259,1.886 -40.848,-9.287 -61.997,-8.706 -10.339,-2.25 -24.813,0.362 -30.871,-10.267 10.483,-2.213 21.112,-3.628 31.851,-3.954l-2.358 -0.581c-1.887,-0.471 -5.696,-1.415 -7.582,-1.886 0.689,-8.271 0.326,-16.796 -5.007,-23.543 -1.886,-2.322 -5.622,-6.893 -7.509,-9.179 -2.104,2.032 -4.136,4.1 -6.059,6.276 -3.265,-1.56 -6.456,-3.083 -9.612,-4.534 -0.254,9.033 -0.617,18.065 -1.27,27.098 -0.689,0 -2.032,-0.072 -2.721,-0.072 -1.85,-18.791 5.115,-37.147 2.213,-55.903 2.322,4.426 6.167,6.567 11.572,6.422 0.254,-2.649 0.726,-7.945 0.943,-10.629 4.97,-2.213 9.976,-4.389 14.838,-6.893 3.301,-1.995 6.566,-4.063 9.795,-6.239 0.181,-1.56 0.616,-4.644 0.834,-6.204 -0.29,-1.016 -0.907,-3.083 -1.233,-4.136 8.125,-2.031 16.432,-3.119 24.776,-4.171 -3.591,-0.182 -7.183,-0.29 -10.737,-0.4 -4.572,-0.544 -8.961,-0.216 -13.169,1.053 -1.814,3.192 -2.721,6.675 -2.684,10.448 -17.414,-6.385 -36.313,-2.504 -53.98,-7.437 -4.208,-0.254 -5.55,-4.57 -7.654,-7.365 18.21,5.769 37.292,11.609 56.555,7.764 0.471,-1.161 1.415,-3.446 1.922,-4.571 -5.187,-3.12 -11.064,-4.317 -16.724,-5.913 0.219,-7.4 0.399,-14.801 0.183,-22.202 -3.919,6.712 -3.737,14.584 -3.883,22.094l-6.166 0.869c-0.399,-7.545 -1.342,-15.054 -3.991,-22.128 1.234,-1.85 3.737,-5.477 4.97,-7.292 -0.834,-0.725 -2.503,-2.176 -3.373,-2.865l-6.567 -3.338c1.379,11.645 3.737,23.145 5.442,34.754 -7.473,-10.557 -9.831,-23.109 -10.702,-35.733 -2.068,11.173 -3.592,22.455 -4.534,33.81 -4.876,-12.725 -11.135,-24.772 -17.845,-36.597 15.064,-42.711 55.334,-115.274 61.812,-135.194l2.612 -0.109c-1.959,-4.498 -3.7,-9.069 -5.296,-13.676 1.052,15.128 -75.709,109.286 -81.115,122.454 11.863,16.034 3.991,37.148 8.598,55.431 -0.036,14.366 15.054,22.419 15.526,36.603 2.213,27.062 -2.286,54.016 -5.659,80.788 5.006,-1.451 13.675,-0.435 14.221,-7.909 4.171,-15.78 6.203,-32.176 6.892,-48.465 4.027,6.675 2.285,14.438 1.451,21.73 -1.015,11.717 -7.908,22.926 -4.426,34.862 6.966,0.362 21.258,-10.122 23.072,0.87 -21.803,1.342 -43.568,-0.435 -65.334,-1.161 0.072,1.923 0.254,5.841 0.326,7.764 6.676,-1.778 13.495,-2.467 20.46,-2.104l-0.109 4.352c-16.469,0.508 -32.902,0.69 -49.263,2.249l0.98 -8.706c6.457,0.545 12.913,1.016 19.48,1.524 2.467,-2.104 4.933,-4.172 7.473,-6.24 -16.361,0.907 -33.484,-0.108 -49.009,-5.332 -18.03,-11.899 -33.81,-26.918 -50.063,-41.065 0.581,-7.582 2.431,-16.107 -3.119,-22.383 0.761,-21.911 -2.105,-44.076 3.663,-65.48l2.25 -1.487c2.249,-6.674 6.675,-12.261 11.899,-16.977 -1.995,-1.342 -3.991,-2.648 -5.986,-3.918 -8.489,4.027 -18.065,2.902 -27.099,3.555l-0.906 -1.669c-7.401,-1.015 -14.802,-1.886 -22.165,-2.575 11.318,-33.918 6.276,-71.501 -3.592,-105.129zm106.145 301.53c-1.088,-12.08 -2.031,-24.197 -2.503,-36.312 2.322,0.253 6.965,0.761 9.287,1.015 0.218,11.753 1.778,23.507 0.871,35.261l-7.655 0.036zm-2.031 32.541c16.796,-2.142 33.882,-1.053 50.533,1.995 0.181,-1.669 0.471,-4.934 0.653,-6.603l2.212 5.478 7.982 1.632c0.181,-1.958 0.544,-5.805 0.725,-7.726 0.399,1.777 1.234,5.332 1.633,7.073 4.498,-0.218 17.413,5.55 15.055,-3.192 -4.317,-2.032 -3.592,-6.167 -2.032,-9.758l1.814 7.981c5.586,-1.306 11.245,-2.394 16.977,-3.338 -5.658,2.467 -11.571,4.57 -16.215,8.707 8.996,1.524 19.081,0.871 27.207,6.021 -14.801,1.778 -30.037,2.975 -44.765,0.036 -20.46,-3.845 -41.646,-2.974 -61.779,-8.306zm169.521 188.492c8.016,54.56 2.503,109.846 0.29,164.624 -6.385,130.377 -7.038,260.9 -11.537,391.35 0.69,65.335 -1.632,130.669 -0.725,196.039 -1.487,30.436 -0.327,61.96 -11.935,90.763 -6.639,14.403 -16.941,26.701 -24.56,40.594 -6.856,10.956 -11.607,23.363 -20.387,33.085 0.871,-14.874 3.011,-29.675 2.322,-44.584 0.581,-77.415 21.343,-156.679 17.571,-233.948 -1.887,-78.722 -6.036,-154.924 -8.648,-233.644 -3.59,-36.204 -19.879,-73.291 -22.273,-109.568 -1.27,24.27 -1.052,48.575 -2.793,72.843 3.156,71.356 2.902,142.894 4.171,214.358 2.794,27.607 -1.886,55.286 0.762,82.929 0.182,65.37 0.762,130.74 0,196.111 -3.482,64.645 -8.306,129.216 -8.234,193.97 -22.383,-0.254 -44.874,-4.898 -65.588,-13.313 -2.83,-28.441 1.379,-57.68 1.633,-86.411 1.306,-83.472 0.362,-166.945 2.066,-250.417 2.758,-76.761 1.451,-153.668 7.292,-230.284 1.743,-55.793 6.095,-111.477 5.26,-167.307 0.762,-90.074 7.836,-179.895 12.299,-269.789 0.943,-16.977 7.798,-33.193 6.929,-50.316 5.453,12.94 9.382,9.359 23.986,8.268 -19.223,77.455 -10.692,149.441 8.335,223.576 -7.805,-33.292 7.356,-98.458 10.076,-132.268 17.845,-123.878 -9.904,-69.941 73.688,-86.661zm23.245 274.247c0.725,-40.184 2.412,-267.502 29.5,-283.132 15.454,-4.353 30.983,-4.513 46.945,-3.787 -3.883,79.01 -7.366,144.937 -4.393,224.056 4.898,42.914 10.194,86.338 24.959,127.186 6.82,25.067 22.055,46.542 35.333,68.525 -21.875,47.342 -49.626,94.9 -50.533,148.48 -2.99,-62.184 -5.025,-124.946 -4.487,-188.075 -30.718,142.316 -1.863,95.982 -4.22,229.395 -4.098,20.822 -14.8,39.541 -25.139,57.788 -13.603,22.455 -26.337,45.636 -43.169,65.879 -11.028,14.292 -24.741,27.642 -28.514,45.998 -1.632,-85.794 22.326,-171.516 22.11,-257.346 2.974,-78.684 -2.926,-156.283 1.608,-234.967zm-273.59 -440.974c0.87,-0.725 2.539,-2.104 3.41,-2.829 0.725,12.297 1.124,24.595 2.14,36.892 -2.998,110.367 1.219,298.855 -2.322,403.106 -11.584,-136.043 -3.03,-298.943 -3.228,-437.169zm335.195 -126.569c-1.995,-1.85 -6.022,-5.514 -8.017,-7.328l7.546 -1.161c-1.705,-0.217 -5.079,-0.616 -6.748,-0.798 2.648,-8.234 5.26,-16.505 7.835,-24.74 5.152,4.389 10.122,8.997 14.983,13.821 6.711,6.276 13.277,12.914 21.221,17.703 -9.467,-10.991 -21.838,-19.516 -28.802,-32.613l-0.291 0.218c-1.27,-2.176 -3.772,-6.565 -5.006,-8.779 -0.872,-1.994 -2.612,-5.985 -3.483,-8.017 -1.85,2.721 -3.7,5.441 -5.477,8.163 -0.073,-6.131 -0.109,-12.262 -0.073,-18.357 -2.104,0.69 -6.312,2.141 -8.38,2.866 3.301,-4.063 6.856,-7.908 10.593,-11.644 -1.814,-1.923 -5.442,-5.732 -7.256,-7.654 -3.591,1.015 -8.306,-0.109 -8.997,-4.245 -2.792,-8.525 -4.715,-17.267 -7.037,-25.865 -10.411,4.825 -6.493,20.206 -8.017,29.928 -4.353,0.617 -8.67,1.234 -12.951,1.85 -6.855,3.302 -12.95,7.908 -17.267,14.22 11.172,-4.426 22.382,-11.426 34.717,-10.773 3.228,7.545 -6.24,7.508 -10.303,10.048 -9.505,3.119 -19.263,5.405 -28.804,8.38 -6.166,-18.827 -2.285,-42.697 14.075,-55.322 7.292,-5.949 14.692,-12.624 23.798,-15.598 6.131,1.087 4.063,8.052 5.26,12.406l4.318 -1.052c1.667,10.448 -0.254,21.838 4.751,31.524 4.244,2.685 8.924,3.773 14.076,3.229l2.902 -0.581c1.995,6.675 -0.182,16.217 7.038,20.097 6.783,-13.676 12.333,-28.042 21.221,-40.63 0.907,1.815 2.685,5.478 3.592,7.328 -0.074,-6.093 -0.074,-12.188 0,-18.247 8.343,5.624 12.043,15.817 18.138,23.653 11.101,9.867 22.926,19.082 32.467,30.617 -5.659,7.546 14.991,4.563 14.047,13.196 -1.632,5.95 -3.808,11.791 -4.897,17.921 -11.138,-5.696 -29.464,-10.041 -42.343,-14.393 7.764,10.012 29.32,9.568 35.051,20.815 2.575,3.734 2.321,9.212 -2.575,11.026 -0.508,13.894 -4.027,27.643 -2.177,41.573 -1.162,0.4 -3.484,1.161 -4.642,1.561 -3.665,-10.412 -25.729,-8.045 -33.275,-16.208 1.814,8.634 4.716,17.087 5.695,25.901 -1.088,11.5 -6.602,22.021 -8.017,33.448l2.068 0.036c7.509,-5.622 5.042,-17.594 8.416,-25.611 0.98,1.887 2.939,5.695 3.918,7.582 -2.285,11.608 -7.618,22.346 -11.717,33.374 1.596,-6.239 0.399,-10.085 -3.664,-11.536 0.072,6.131 0.507,12.298 1.415,18.429 -14.075,-20.461 -30.291,-40.158 -53.037,-51.512 21.005,15.997 41.211,34.716 50.823,60.073 -11.317,-5.332 -25.429,-2.576 -34.898,-12.007 -12.587,-11.573 -17.521,-30.255 -34.498,-37.22 -5.732,-3.048 -11.391,-6.53 -17.957,-7.073 3.99,-8.78 6.856,-18.212 5.623,-27.971 14.765,-3.954 30.363,-4.244 44.802,-9.758 4.97,-0.652 10.048,-1.197 15.126,-1.922 -5.73,-1.886 -11.789,-3.156 -17.666,-4.099 -4.426,-2.395 -7.328,-6.023 -8.634,-10.92 2.866,0.653 8.562,1.995 11.391,2.648zm-158.674 -37.074c-6.711,0.218 -19.407,1.813 -18.355,-8.489 6.639,1.379 13.748,3.011 18.355,8.489zm-6.711 82.13c-0.399,-1.415 -1.197,-4.209 -1.596,-5.623 4.208,0.036 12.624,0.182 16.833,0.218 -0.291,2.576 -0.871,7.763 -1.161,10.339l3.809 -0.364c3.3,3.048 6.529,6.167 9.685,9.469 0.943,-0.581 2.902,-1.742 3.882,-2.322 -3.846,-4.425 -7.472,-9.105 -10.485,-14.075 31.018,-0.436 61.453,6.638 92.18,10.084 11.717,8.78 30.291,8.707 36.276,24.089 4.172,8.56 -6.82,13.24 -12.079,17.303 3.518,3.338 6.675,7.147 9.685,11.1 -11.39,-4.497 -18.392,-15.489 -28.984,-21.366 -14.656,-12.261 -33.23,-17.413 -51.042,-23.108 9.795,5.151 20.931,7.146 30.763,12.334 -0.436,5.804 3.192,11.608 1.559,17.267 -6.493,2.939 -14.075,1.633 -20.967,2.83 10.483,2.83 25.538,-4.643 31.27,7.727 -16.107,-2.176 -32.649,-1.668 -48.428,-5.877 -1.054,-1.233 -3.193,-3.7 -4.246,-4.934 -3.3,6.204 -6.493,12.479 -9.577,18.792 -0.181,-3.665 -0.362,-7.291 -0.507,-10.883 -3.701,-1.125 -7.365,-2.032 -10.412,-4.39 -3.628,-5.151 -7.617,-10.085 -12.879,-13.603 -0.144,1.632 -0.47,4.933 -0.653,6.566 -4.353,1.741 -8.887,-1.597 -13.276,-1.923 -10.303,-1.524 -20.496,-3.628 -30.69,-5.696 -5.913,3.374 -13.894,4.825 -19.698,0.437 -2.286,3.156 -4.571,6.383 -6.784,9.612 10.193,0.472 20.496,-0.072 30.726,0.145 -8.489,6.82 -19.661,3.302 -29.456,2.721 -6.675,-1.669 -14.873,-0.472 -19.953,-5.768 3.23,0.254 9.722,0.725 12.951,0.943 3.519,-2.721 7.038,-5.478 10.557,-8.27 -11.282,-5.08 -23.798,-4.607 -35.624,-7.219 0.472,-1.053 1.451,-3.193 1.959,-4.281 26.155,2.612 52.166,6.965 78.393,9.178 -25.865,-7.981 -53.58,-7.147 -80.17,-11.935 0.399,-5.442 0.798,-10.92 1.269,-16.324 22.056,-2.396 44.33,-2.83 66.532,-2.83 2.575,-0.073 7.763,-0.255 10.338,-0.363zm-168.25 37.583c-4.862,-1.96 -13.605,-4.499 -8.997,-11.427 18.719,-2.431 36.494,9.105 55.504,6.637l-0.11 1.561c-11.499,1.559 -23.18,2.176 -34.643,0.217 -0.109,1.815 -0.364,5.442 -0.472,7.255 -0.254,-1.741 -0.727,-5.26 -0.981,-7.001l-9.141 2.14c-0.253,2.721 -0.725,8.163 -0.979,10.92 7.147,0 14.438,0 21.657,0 -7.836,1.197 -15.599,2.467 -23.398,3.7 0.507,-4.68 1.015,-9.359 1.56,-14.002zm134.984 35.079c23.109,-1.488 47.632,5.478 69.18,-6.095 2.322,1.524 4.643,3.12 6.965,4.789 -3.736,9.214 -13.604,12.552 -22.6,13.857 12.465,2.588 129.38,9.007 105.347,17.957 -37.801,1.27 -76.652,-1.487 -112.276,-14.909 -15.961,-3.918 -31.778,-8.416 -46.616,-15.599zm135.24 -26.627c0.363,-4.898 0.689,-9.795 0.943,-14.693 8.851,8.852 22.31,14.838 25.684,27.969 -5.914,-1.595 -11.645,-3.3 -17.377,-5.224 -2.974,-2.865 -6.058,-5.549 -9.25,-8.052zm41.5 43.387c1.053,-1.161 3.228,-3.483 4.317,-4.644 12.697,-2.321 30.472,-8.706 36.748,7.364 7.872,0.145 15.78,-0.544 23.725,-0.979 -2.975,2.975 -5.913,5.985 -8.78,8.996 0.291,1.415 0.871,4.281 1.161,5.696 -5.114,0.834 -10.156,1.741 -15.163,2.575 -4.934,-2.466 -10.158,-1.451 -14.982,0.327 -10.194,-6.095 -22.02,-5.696 -33.41,-5.55 1.705,-1.814 3.482,-3.556 5.295,-5.297l0.727 0.255 7.145 -5.298c-1.705,-0.869 -5.114,-2.574 -6.783,-3.445zm-135.674 43.314c-0.508,-11.065 -1.887,-22.347 0.326,-33.266 0.943,-0.653 2.794,-1.995 3.737,-2.648 0.036,12.08 -1.016,24.196 -4.063,35.914zm-24.122 33.006c2.258,-12.81 -2.4,-59.05 9.648,-64.531 -6.22,11.309 6.539,55.917 -9.648,64.531zm22.436 -2.086c-6.075,-3.501 1.447,-13.247 7.744,-10.387 3.918,6.71 6.747,14.002 8.852,21.512 -9.324,-0.254 -18.248,-2.975 -27.026,-5.769 1.917,-4.75 5.394,-6.535 10.43,-5.356zm13.694 25.997c1.995,-6.53 4.207,-12.987 6.675,-19.298 9.939,1.886 14.836,10.483 10.882,19.879 -5.913,-0.254 -11.754,-0.472 -17.557,-0.581zm45.055 -11.281c4.607,-3.047 7.473,-2.322 8.561,2.286 -4.68,3.082 -7.546,2.321 -8.561,-2.286zm-43.35 16.651c0.507,-5.152 9.794,-3.665 13.204,-1.633 -0.037,5.297 -10.085,3.773 -13.204,1.633zm178.83 42.426c63.96,-21.831 29.181,216.129 45.889,337.162 -54.902,-59.55 -53.64,-259.824 -45.889,-337.162zm-371.496 -511.119c1.996,-43.279 1.198,-86.629 1.016,-129.943 0.943,-38.598 1.342,-77.196 -0.725,-115.759 -0.4,-60.654 0.58,-121.308 -0.291,-181.926 -8.524,7.4 -12.515,18.32 -16.287,28.585 -6.929,22.492 -11.319,46.072 -11.646,69.615 5.769,31.053 3.773,62.831 4.898,94.247 -1.379,48.429 0.036,96.858 -0.109,145.287 -0.472,26.011 0.98,52.855 -8.67,77.596 -2.866,0.58 -8.634,1.813 -11.537,2.394 0.727,0.653 2.214,1.886 2.939,2.503 7.908,1.923 15.744,4.245 23.363,7.256 0,-87.971 2.792,-176.014 0.58,-263.985 -0.69,-18.936 2.902,-37.619 7.256,-55.902 0.979,35.55 -3.809,71.174 -1.125,106.798 0.29,66.531 1.341,133.172 -2.539,199.666 -0.545,5.26 -2.322,10.266 -3.701,15.345 4.317,3.99 8.742,7.763 13.386,11.499 0.798,-3.3 2.394,-9.975 3.192,-13.276zm15.526 7.364c2.358,0.363 7.075,1.051 9.433,1.415 0.799,-2.104 2.394,-6.349 3.192,-8.453 -1.633,-9.867 -2.83,-19.806 -3.374,-29.819 2.286,-43.097 0.689,-86.302 2.902,-129.399 1.56,-25.43 -1.378,-50.859 0.145,-76.289 0.109,-25.248 2.177,-51.404 -6.71,-75.529 -5.188,-14.401 -3.374,-29.928 -1.487,-44.728 2.648,16.035 1.74,32.649 7.363,48.139 6.167,17.339 6.421,35.986 5.188,54.161 -5.007,77.305 1.705,154.719 -1.85,232.06 0.072,5.951 -1.923,12.48 1.959,17.74 8.416,5.551 18.246,-2.068 27.207,-3.628 -8.923,-2.321 -14.365,-9.432 -16.941,-17.811 -2.068,3.699 -4.208,7.328 -6.421,10.919 1.233,-21.911 1.487,-43.786 1.197,-65.696 -0.544,-58.188 0.617,-116.376 1.197,-174.564 1.415,-32.285 1.814,-64.644 1.488,-97.003 -3.918,-26.627 -11.283,-52.783 -22.999,-77.052 -0.945,0.98 -2.794,2.975 -3.737,3.954 -2.431,21.84 -0.617,43.823 -0.074,65.734 0.799,84.451 -0.797,168.903 0.254,253.392 -1.232,37.473 0.147,75.019 2.068,112.457zm49.011 -7.582c-9.832,-0.073 -20.243,-0.363 -29.058,4.752 -3.845,5.006 -2.431,11.681 -3.12,17.522l-4.861 0.036c-0.145,-2.83 -0.435,-8.489 -0.581,-11.283 -5.042,0.254 -3.954,7.292 -5.26,10.666 -9.395,5.006 -15.09,15.78 -13.313,26.409 0.327,16.724 7.11,34.318 1.669,50.679l-2.14 5.296c8.924,-0.398 17.885,-0.218 26.844,0.509 4.861,-26.302 -0.109,-53.473 6.313,-79.737 10.809,-5.441 22.201,-9.649 34.1,-12.261 -2.795,-4.752 -5.478,-9.976 -10.593,-12.588z"/>
 </g>
</svg>
