<?xml version="1.0" encoding="UTF-8"?>
<!DOCTYPE svg PUBLIC "-//W3C//DTD SVG 1.1//EN" "http://www.w3.org/Graphics/SVG/1.1/DTD/svg11.dtd">
<!-- Creator: CorelDRAW 2021 (64-Bit) -->
<svg xmlns="http://www.w3.org/2000/svg" xml:space="preserve" width="1358px" height="1255px" version="1.1" style="shape-rendering:geometricPrecision; text-rendering:geometricPrecision; image-rendering:optimizeQuality; fill-rule:evenodd; clip-rule:evenodd"
viewBox="0 0 1357.998 1255.012"
 xmlns:xlink="http://www.w3.org/1999/xlink"
 xmlns:xodm="http://www.corel.com/coreldraw/odm/2003">
 <defs>
  <style type="text/css">
   <![CDATA[
    .fil0 {fill:#000066}
   ]]>
  </style>
 </defs>
 <g id="__x0023_Layer_x0020_1">
  <metadata id="CorelCorpID_0Corel-Layer"/>
  <path class="fil0" d="M537.106 451.824c-20.055,-15.017 -33.961,-37.407 -57.118,-48.415 15.115,17.904 32.406,33.885 49.293,50.162l-11.102 7.454c-20.301,-18.872 -39.89,-38.835 -62.632,-54.839 -31.572,-17.62 -65.471,-33.122 -91.434,-58.87 -17.888,-23.741 -29.872,-51.605 -38.396,-79.972 -6.736,-23.791 -22.936,-46.66 -46.16,-56.47 0.165,-1.147 0.445,-3.494 0.611,-4.643 23.578,9.513 45.843,23.811 60.868,44.714 7.865,10.205 1.792,23.227 3.238,34.799 2.884,20.291 12.939,38.827 25.682,54.648 -11.438,-23.705 -22.963,-48.412 -23.058,-75.317 16.132,16.766 12.567,44.174 30.059,60.158 13.33,12.978 21.881,31.944 40.038,39.085 14.526,5.795 28.686,12.733 43.78,17.132 -32.394,-15.929 -67.09,-35.493 -83.297,-69.112 30.467,32.957 72.956,49.425 109.082,74.407 -3.157,0.457 -9.471,1.373 -12.577,1.783 2.744,0.636 8.177,1.909 10.919,2.496 17.695,19.487 47.375,32.731 52.204,60.8zm14.706 -15.457c-10.5,-11.441 -19.382,-24.211 -29.427,-35.997 -35.838,-39.081 -92.782,-47.836 -128.871,-86.82 -25.441,-19.839 -28.589,-53.936 -47.77,-78.346 -16.076,-24.517 -45.728,-32.31 -71.09,-42.997 -22.111,-14.545 -45.498,-27.107 -66.438,-43.338 13.718,29.036 33.114,55.998 59.621,74.601 16.646,11.774 33.518,25.499 39.952,45.688 10.143,30.838 19.217,63.163 39.777,88.991 18.34,19.894 38.493,38.715 62.834,51.089 33.412,18.396 61.526,44.022 89.797,69.201 -7.924,9.246 -15.996,18.393 -24.662,26.928 -20.387,-12.472 -44.541,-16.143 -65.756,-26.676 -3.484,2.454 -6.917,4.909 -10.3,7.465l14.817 2.548c-36.706,7.664 -74.731,1.609 -111.474,-3.128l-5.116 -6.42c20.45,0.222 40.899,0.493 61.351,0.614 15.002,0.048 32.048,8.075 44.704,-3.509 -47.39,-8.879 -103.05,6.287 -142.855,-27.847 -16.812,-18.176 -37.261,-33.498 -61.324,-40.368 -49.34,-12.706 -102.163,-0.254 -150.006,-20.192 30.91,33.666 77.044,42.879 119.041,54.988 38.956,18.869 59.177,62.694 99.508,79.83 28.601,15.381 62.147,12.275 93.174,18.187 28.495,4.378 60.202,4.247 83.856,23.065 -2.684,6.415 -5.222,12.882 -7.608,19.401 -34.502,-0.157 -67.23,12.811 -99.862,22.431 -31.289,10.088 -62.308,30.03 -96.463,22.377 -38.998,-8.019 -79.073,-25.502 -119.052,-12.48 -40.046,14.272 -78.425,38.766 -122.17,37.788 10.862,10.595 26.897,11.858 41.224,13.698 43.291,1.172 89.043,-20.974 130.314,0.577 37.949,19.405 81.839,32.039 124.432,21.75 44.807,-11.308 87.651,-29.342 133.461,-37.037 1.104,18.667 1.951,37.632 8.619,55.272 -17.422,12.722 -39.375,16.482 -57.431,28.044 -5.798,3.474 -8.679,9.738 -8.818,16.337 -51.376,16.422 -90.358,56.212 -132.93,87.452 -20.02,12.587 -39.947,25.825 -55.981,43.365 -29.383,28.516 -54.446,66.889 -52.209,109.475 0.144,26.856 14.643,53.453 5.488,80.136 -3.923,13.05 -19.722,16.642 -25.034,28.774 19.188,-6.547 36.219,-19.824 45.462,-38.103 9.475,-16.929 6.341,-37.123 12.531,-55.094 12.5,-33.891 33.016,-64.973 60.038,-88.969 38.1,-29.701 73.791,-62.582 115.133,-87.888 35.966,-27.229 72.525,-61.399 120.491,-62.064 4.056,10.906 9.923,21.035 18.365,29.198 -19.148,22.399 -33.792,48.06 -49.028,73.163 -17.88,28.616 -16.027,66.196 -38.527,92.352 -18.492,25.509 -47.629,39.377 -71.688,58.61 -38.523,31.446 -43.493,85.838 -42.157,132.162 1.602,26.276 -7.48,51.159 -16.5,75.294 27.182,-24.744 38.416,-61.201 48.171,-95.427 7.565,-27.454 24.102,-52.689 47.868,-68.727 25.4,-14.816 54.468,-23.332 77.275,-42.432 20.199,-14.936 34.295,-37.052 41.812,-60.857 6.962,-19.76 8.444,-40.945 16.104,-60.446 6.134,-21.322 21.106,-41.826 43.049,-48.487 22.689,8.552 43.775,21.283 66.981,28.692 49.075,13.702 102.213,11.457 150.531,-4.357 19.027,-5.698 31.766,14.223 45.035,24.301 44.954,37.951 46.084,103.577 86.293,144.966 22.964,25.557 56.428,36.303 87.837,47.27 28.022,9.974 46.923,36.579 53.35,64.867 7.66,33.256 15.701,68.02 36.837,95.704 -1.179,-20.419 -9.425,-39.731 -9.903,-60.29 -1.442,-38.376 4.995,-78.747 -11.982,-114.778 -11.281,-35.505 -51.315,-44.686 -75.401,-68.709 -19.095,-15.706 -27.529,-39.621 -33.423,-62.803 -5.321,-21.124 -19.698,-38.167 -35.157,-52.724 -16.396,-15.57 -28.541,-35.083 -45.847,-49.766 -6.18,-5.431 -13.064,-10.475 -16.663,-18.073 17.017,-12.527 31.725,-27.983 43.657,-45.33 1.567,-8.929 -3.267,-21.447 6.11,-27.171 8.103,-3.844 15.244,-14.551 25.181,-9.52 49.097,19.605 94.438,47.26 136.524,78.972 20.292,19.772 39.095,42.324 64.88,55.167 25.931,13.096 42.607,37.621 60.774,59.266 19.157,22.406 31.304,52.873 23.962,82.43 -12.95,-49.229 -39.947,-95.044 -77.849,-129.252 -17.402,-18.982 -43.21,-26.176 -61.985,-43.478 -44.988,-39.202 -95.141,-73.621 -151.629,-93.923 -9.659,4.422 -26.517,4.75 -24.063,19.634 21.56,6.988 41.825,17.358 61.89,27.825 29.806,14.847 51.87,40.643 78.923,59.504 34.643,23.662 64.1,53.559 95.187,81.424 20.151,22.822 37.41,48.854 47.326,77.839 7.989,23.66 0.615,51.667 16.791,72.583 8.984,16.572 26.119,25.351 42.52,32.969 -5.056,-14.669 -25.515,-18.041 -26.94,-35.011 -6.312,-36.989 17.614,-72.629 9.157,-109.796 -10.451,-45.497 -44.012,-82.697 -80.606,-110.035 -45.671,-36.712 -88.433,-77.834 -140.217,-106.026 -26.122,-13.848 -51.703,-30.539 -81.029,-36.477 3.305,-11.71 8.005,-22.999 13.102,-34.032 51.373,2.68 100.746,-17.368 151.825,-18.943 37.229,-1.807 70.068,18.282 104.791,28.343 20.283,5.369 41.438,1.349 61.738,-2.082 38.281,-13.246 80.015,-19.043 119.956,-10.512 -39.178,-32.174 -94.109,-30.552 -141.798,-24.333 -36.711,-7.138 -63.312,-37.695 -98.258,-49.71 -25.531,-9.189 -53.147,-12.156 -80.027,-10.161 -39.206,7.532 -77.963,18.769 -118.169,18.837 -0.079,-12.952 -6.245,-26.887 -2.431,-39.238 11.843,-3.093 24.021,-5.032 35.724,-8.927 21.046,-6.824 42.311,-15.344 58.52,-30.981 32.392,-29.175 74.251,-48.273 118.259,-48.391 36.699,0.536 79.032,-1.452 105.718,-30.304 24.816,-27.375 61.031,-46.849 98.698,-43.899 -24.221,-13.823 -53.62,-10.513 -79.373,-3.052 -27.035,10.043 -51.38,28.174 -80.774,31.134 -20.215,0.982 -39.894,-4.778 -59.817,-6.994 -48.483,-9.393 -97.192,9.616 -136.855,36.495 -29.102,14.964 -56.906,37.5 -91.02,38.199 -3.91,-6.803 -7.771,-13.604 -11.833,-20.26 13.017,-4.928 24.721,-12.674 35.637,-21.232 36.077,-31.927 45.306,-82.963 79.158,-116.719 19.183,-17.498 42.844,-29.237 66.919,-38.419 19.246,-7.048 34.59,-21.395 48.879,-35.559 19.706,-19.093 23.941,-48.14 42.458,-68.098 10.873,-16.658 25.993,-29.31 40.027,-43.076 -45.297,14.302 -77.092,51.336 -112.094,81.228 -20.398,18.482 -48.778,20.506 -73.889,28.575 -18.23,5.86 -36.476,12.82 -51.588,24.87 -28.677,20.525 -43.517,53.583 -62.348,82.238 -14.605,22.761 -37.569,38.607 -51.678,61.775 -14.279,-1.739 -22.296,-15.648 -35.593,-19.824 14.544,-29.563 37.6,-56.161 42.096,-89.857 2.594,-33.471 5.64,-66.986 12.727,-99.848 16.176,-35.791 55.395,-55.675 66.157,-94.237 8.671,-23.99 4.116,-50.055 9.093,-74.742 2.044,-25.926 14.701,-49.062 29.628,-69.718 -20.975,9.122 -34.895,29.44 -47.342,47.829 -17.392,25.673 -17.389,59.329 -37.51,83.418 -9.977,13.318 -25.035,21.22 -37.281,32.059 -20.937,17.627 -37.393,40.612 -46.586,66.445 -13.092,36.981 -15.565,76.455 -25.219,114.283 -5.108,19.387 -10.461,42.218 -26.137,55.413 -33.704,-3.998 -68.197,-8.655 -101.706,-0.798 -9.465,-40.632 -29.782,-77.256 -55.657,-109.655 -1.703,0.229 -5.11,0.682 -6.812,0.861 -1.789,6.628 0.086,12.353 5.623,17.178 19.06,22.104 29.187,50.393 36.318,78.292 -0.614,4.994 4.138,19.809 -4.488,17.993 -8.528,-20.767 -14.288,-42.595 -21.459,-63.843 0.79,23.414 9.7,45.435 11.844,68.617 -18.503,-15.097 -19.913,-40.87 -31.554,-60.477 -15.423,-32.459 -48.62,-52.004 -63.485,-84.905 -8.279,-20.513 -18.858,-41.155 -18.808,-63.808 -0.743,-23.214 5.067,-46.541 1.024,-69.648 -6.127,-20.785 -15.921,-40.216 -24.912,-59.841 40.479,28.492 50.727,81.637 49.459,128.127 -3.146,-0.242 -6.243,-0.533 -9.339,-0.925 0.401,-11.346 0.552,-22.695 -0.299,-34.009 -5.267,23.934 -0.99,48.395 2.893,72.201 -0.934,-12.516 1.131,-24.84 8.271,-35.347 3.162,21.745 2.346,45.589 14.795,64.755 11.239,16.053 25.056,30.037 38.875,43.823l6.808 -0.56c-12.585,-8.767 -20.309,-22.272 -30.209,-33.604 -10.319,-13.791 -24.59,-27.482 -23.24,-46.266 9.821,13.482 18.786,27.553 29.722,40.149 1.094,0.465 3.233,1.344 4.278,1.808 1.825,1.774 5.479,5.373 7.305,7.199 2.543,0.482 7.582,1.45 10.076,1.882 -22.605,-18.802 -40.668,-44.346 -44.575,-74.102 -6.982,-31.598 -0.426,-65.964 -16.591,-95.235 -22.939,-42.61 -68.338,-69.666 -83.109,-117.318 -3.464,12.255 -1.03,24.94 0.705,37.315 3.419,32.751 25.124,58.94 38.088,88.168 4.352,15.06 6.543,30.842 3.638,46.355 -4.356,26.747 -3.521,54.311 3.281,80.607 4.061,14.456 9.976,28.437 18.261,41.047 27.946,42.128 63.132,81.25 79.543,129.774 -8.001,3.695 -15.758,7.892 -22.828,13.101zm-74.908 105.374c25.918,-53.815 77.512,-90.439 132.387,-110.614 77.294,-21.28 168.577,-3.868 225.152,55.34 20.593,19.627 32.042,46.283 48.895,68.81 10.102,22.688 14.574,47.551 16.798,72.133 1.033,31.42 2.149,64.288 -10.047,93.982 -10.864,27.46 -27.147,52.399 -45.258,75.563 -42.412,45.694 -102.629,76.552 -165.876,75.514 -92.459,3.326 -182.967,-57.483 -214.771,-144.367 -11.529,-31.959 -17.677,-66.145 -14.676,-100.162 3.053,-30.313 14.881,-58.761 27.396,-86.199zm385.771 -64.85c-5.821,8.974 -16.054,0.037 -12.047,-8.011 16.257,-15.487 34.197,-29.502 47.638,-47.676 29.628,-35.663 46.149,-82.303 85.512,-109.336 28.145,-18.029 64.832,-9.091 93.072,-26.969 12.788,-10.133 22.612,-23.304 34.462,-34.449 -5.351,33.984 -39.842,51.929 -67.832,65.81 -22.338,13.907 -49.704,18.594 -69.594,36.485 -6.393,-11.938 8.704,-19.088 15.898,-26.043 15.553,-11.446 36.374,-5.17 51.567,-15.819 -14.248,-0.241 -28.561,0.621 -41.837,6.096 -11.323,5.5 -19.569,16.343 -31.522,20.234 -0.639,6.695 -1.029,13.44 -1.569,20.133 -9.359,8.177 -14.411,19.664 -19.856,30.491 -8.279,17.244 -20.482,32.435 -26.974,50.551 11.294,-14.452 20.16,-30.637 31.403,-45.14 10.377,-13.266 15.063,-30.906 29.099,-41.121 -2.289,10.421 -9.049,18.733 -14.32,27.664 -12.514,19.838 -17.982,43.869 -34.466,61.202 -3.654,4.053 -8.277,5.843 -13.971,5.317 -18.513,15.857 -33.851,37.408 -58.299,44.484 12.898,-18.531 33.619,-31.158 43.796,-52.027 -14.011,12.017 -26.692,25.501 -40.16,38.124zm96.154 49.882c32.46,-11.773 55.539,-40.021 87.321,-53.403 26.333,-13.502 57.174,-12.494 85.397,-6.269 35.306,7.369 72.453,0.56 103.351,-17.883 -12.396,18.538 -33.784,28.655 -54.995,33.076 -15.434,2.295 -31.232,2.036 -46.244,6.537l-16.624 1.581 7.958 -11.796c-24.257,-11.123 -53.069,-10.605 -76.01,3.493 22.249,-3.355 44.774,-5.007 67.254,-3.308l0.8 7.611c-32.29,-1.028 -64.065,7.902 -93.825,19.76l15.113 6.751c8.359,-4.488 16.526,-9.332 24.644,-14.426 -1.047,3.538 -0.765,8.693 -5.279,9.732 -14.82,5.055 -26.672,16.399 -41.876,20.248 0.915,-4.838 7.19,-10.406 2.95,-15.012 -15.772,12.842 -33.704,22.606 -50.409,34.087 13.212,-4.525 25.492,-14.215 39.888,-13.724 -13.03,20.98 -41.539,21.254 -62.366,30.579 -12.875,1.781 -28.999,10.917 -40.315,0.716 -1.084,-8.767 -4.275,-16.959 -7.62,-25.005 18.752,-3.753 38.66,-4.04 56.08,-12.908 -0.558,4.343 -1.064,8.686 -1.573,13.03 -16.156,4.037 -34.708,4.091 -47.814,15.669 22.703,-0.049 43.196,-10.529 63.271,-19.765l-13.269 1.174c1.036,-2.636 3.107,-7.908 4.192,-10.545zm-494.15 -9.648l0.74 8.311c-22.843,-4.554 -43.36,-18.578 -67.224,-17.894 19.454,7.51 39.669,14.128 57.578,24.967l3.221 9.845c-22.322,-2.396 -41.661,-14.756 -63.3,-19.692 -38.202,-11.658 -78.906,-8.046 -117.436,-17.509 -41.797,-15.905 -63.97,-59.656 -103.26,-79.68 -11.789,-4.856 -25.486,-5.237 -35.423,-13.873 27.055,0.01 55.884,1.843 78.263,18.892 24.885,12.68 38.787,39.169 64.134,51.107 2.648,0.085 7.946,0.306 10.544,0.439l-1.714 4.778c35.869,14.127 74.587,9.541 112.271,11.088 21.157,3.482 42.641,8.767 61.606,19.221zm-213.172 119.894c42.146,4.559 75.71,-30.101 117.611,-29.646 -17.228,13.174 -39.485,17.38 -56.374,31.309l13.675 -1.72c31.52,-19.885 68.524,-27.497 104.388,-35.573 0.613,2.81 1.838,8.426 2.501,11.235 -17.342,2.97 -34.447,6.945 -51.453,11.071 15.725,-1.742 31.563,-4.383 47.498,-3.121 -0.236,2.646 -0.657,8.042 -0.842,10.74 -44.754,3.457 -88.504,14.33 -128.922,34.095 -29.429,16.864 -64.186,9.454 -94.092,-1.744 -18.924,-9.704 -37.676,-21.203 -59.297,-23.64 -19.161,-3.205 -37.664,4.401 -56.443,6.454 26.276,-20.607 60.987,-21.046 92.794,-21.175 0.508,3.208 1.422,9.621 1.88,12.826l-17.907 -3.436c28.006,11.272 56.57,21.803 85.981,28.893 -3.679,-1.549 -10.99,-4.547 -14.621,-6.095 -17.663,-6.784 -35.687,-12.774 -54.083,-17.069 2.554,-4.017 5.157,-8.034 7.761,-12.049 19.532,5.409 39.755,7.628 59.945,8.645zm665.922 13.824c38.698,0.614 77.096,-6.379 114.336,-16.488 35.34,-10.232 75.218,-4.303 106.417,15.063 29.518,14.092 54.592,42.679 90.475,36.853 -0.071,1.65 -0.266,4.998 -0.387,6.647 -41.469,8.451 -82.702,-8.397 -116.962,-30.655 -3.87,5.15 -8.847,7.135 -14.882,5.904 -28.704,-3.68 -57.051,3.295 -84.888,9.377 -23.119,4.995 -46.945,2.929 -70.158,-0.129 -8.928,-1.719 -19.757,0.338 -26.358,-7.25 19.784,-9.94 40.61,3.489 61.362,-0.087 23.205,-4.044 46.932,-5.679 69.86,-11.326 17.271,-1.322 34.548,0.507 51.812,-0.315 -10.312,-3.087 -21.382,-1.633 -31.59,-4.919 -17.171,-2.476 -34.707,0.09 -50.548,6.831 -32.106,3.826 -72.315,15.344 -98.489,-9.506zm-476.485 72.349c1.763,6.725 5.181,12.871 7.946,19.31 -2.405,8.808 -14.315,5.531 -22.005,7.081 -0.04,3.691 -5.487,4.241 -7.422,1.685 -55.944,17.779 -99.534,58.673 -146.387,92.17 -17.105,15.275 -39.213,23.135 -56.317,38.411 -33.795,33.157 -64.32,72.409 -73.901,119.939 -7.126,-28.449 6.806,-57.02 23.404,-79.353 22.227,-28.111 49.558,-52.753 81.432,-69.382 9.47,-5.075 17.911,-11.914 25.513,-19.465 28.836,-28.823 64.071,-49.909 98.607,-71.105 10.711,-6.419 22.279,-11.125 34.189,-14.758l-1.176 -0.002c7.178,-1.767 14.286,-3.659 21.51,-5.221l-0.248 0.427 0.745 -0.06 1.51 -4.692 8.974 3.844 -0.591 0.684 2.443 1.318c0.362,-4.797 0.777,-9.642 1.29,-14.435 -20.996,10.724 -44.274,16.365 -66.337,24.624 5.286,-10.182 17.801,-11.066 26.919,-16.196 13.367,-4.822 24.774,-16.575 39.902,-14.824zm-57.617 268.579c34.291,-25.149 43.868,-68.68 61.603,-105 11.673,-28.049 33.661,-49.561 52.571,-72.715 2.545,4.186 5.04,8.368 7.583,12.602 -10.532,9.812 -19.779,20.842 -27.887,32.737 -25.109,30.622 -27.324,73.149 -50.847,104.743 -13.132,17.427 -28.807,34.274 -49.471,42.55 -11.784,6.195 -26.726,9.348 -33.398,22.112 24.725,-5.423 46.562,-19.187 65.727,-35.185 40.548,-40.969 44.94,-104.321 86.033,-144.984 6.927,-5.759 12.302,-18.84 23.226,-12.993 -19.302,22.647 -40.12,46.376 -45.72,76.556 -8.651,41.392 -30.747,78.605 -61.287,107.605 -2.508,-3.134 -4.917,-6.216 -7.326,-9.349l6.664 -4.763c-10.63,5.911 -20.969,12.526 -30.077,20.605 3.976,-1.898 11.926,-5.593 15.902,-7.491 2.469,2.284 4.89,4.516 7.359,6.849 -21.261,8.22 -41.411,19.305 -62.287,28.53 -25.826,12.91 -31.576,43.038 -45.228,65.761 0.964,-19.94 7.472,-39.306 18.494,-55.913 8.772,-12.986 13.689,-29.224 27.46,-38.193 8.272,-16.694 27.6,-22.338 40.906,-34.064zm448.594 -137.578c28.075,24.876 56.899,49.862 77.833,81.393 16.36,29.672 23.925,66.377 52.9,87.415 21.499,19.338 52.958,26.556 69.128,51.624 -23.827,-9.568 -44.95,-26.999 -71.72,-29.455 -37.482,-20.699 -48.6,-64.804 -64.168,-101.366 -15.182,-39.307 -46.988,-69.383 -81.439,-92.243 5.115,-8.834 12.565,-1.184 17.466,2.632zm-39.351 7.279c6.521,-1.564 13.089,-2.977 19.708,-4.339 23.898,23.07 54.218,40.824 70.475,70.794 18.065,29.195 22.295,64.806 42.021,93.221 8.629,13.016 20.582,24.278 35.875,28.781 41.766,6.855 82.074,40.593 83.233,85.265 -12.969,-25.125 -29.868,-51.903 -58.095,-61.379 -32.037,-8.976 -67.52,-18.347 -89.007,-45.886 -24.383,-28.078 -33.296,-64.952 -47.153,-98.54 11.956,11.06 23.653,22.717 37.439,31.551 -5.276,-5.771 -10.397,-11.74 -14.612,-18.246 -7.324,-5.749 -14.747,-11.649 -23.558,-14.815 -10.506,-14.692 -19.591,-30.965 -34.094,-42.208 -8.763,-6.719 -16.963,-14.378 -22.232,-24.199zm-31.425 -444.036c10.057,-15.469 19.619,-31.294 27.193,-48.147 11.452,-26.353 15.782,-55.049 17.358,-83.534 2.756,-26.668 7.374,-54.46 24.76,-75.883 14.887,-25.206 44.481,-35.717 61.344,-59.147 12.853,-15.233 18.909,-34.455 25.206,-53.023 2.019,25.081 -5.957,49.477 -17.549,71.376 -13.006,22.983 -37.895,36.955 -48.423,61.62 -14.546,33.512 -12.791,70.792 -19.209,106.112 -11.735,32.599 -30.775,61.952 -45.195,93.366 -1.092,-4.214 -2.087,-8.378 -3.084,-12.541 -7.501,-0.002 -15.001,-0.101 -22.401,-0.199z"/>
 </g>
</svg>
